<svg xmlns="http://www.w3.org/2000/svg" viewBox="0 0 128 128"><defs><style>.cls-1{isolation:isolate;}.cls-2{mix-blend-mode:multiply;}.cls-3{fill:#ff88b6;}.cls-4{fill:#ea659b;}.cls-5{fill:#a0336f;}</style></defs><title>pig</title><g class="cls-1"><g id="icons" class="cls-2"><path class="cls-3" d="M105,72c0,22.64-11,33-41,33S23,94.64,23,72,41.36,23,64,23,105,49.36,105,72Z"/><circle cx="81" cy="52" r="4"/><circle cx="47" cy="52" r="4"/><ellipse class="cls-4" cx="64" cy="79" rx="22" ry="16"/><path class="cls-5" d="M60,79a4,4,0,1,1-4-4A4,4,0,0,1,60,79Zm12-4a4,4,0,1,0,4,4A4,4,0,0,0,72,75Z"/><path class="cls-4" d="M98.39,47.28c12-8.16,14-27.08,11.89-29.49h0l0,0,0,0h0c-2.33-2-20.1-.24-28.64,10.73A51.1,51.1,0,0,1,98.39,47.28Z"/><path class="cls-4" d="M29.61,47.28c-12-8.16-14-27.08-11.89-29.49h0l0,0,0,0h0c2.33-2,20.1-.24,28.64,10.73A51.1,51.1,0,0,0,29.61,47.28Z"/></g></g></svg>