<svg xmlns="http://www.w3.org/2000/svg" xmlns:xlink="http://www.w3.org/1999/xlink" width="306" zoomAndPan="magnify" viewBox="0 0 229.5 352.499998" height="470" preserveAspectRatio="xMidYMid meet" version="1.0"><defs><clipPath id="id1"><path d="M 0 0.132812 L 229 0.132812 L 229 351.867188 L 0 351.867188 Z M 0 0.132812 " clip-rule="nonzero"/></clipPath><clipPath id="id2"><path d="M 0 0.132812 L 229 0.132812 L 229 31 L 0 31 Z M 0 0.132812 " clip-rule="nonzero"/></clipPath></defs><g clip-path="url(#id1)"><path fill="#ffffff" d="M 0 0.132812 L 229.5 0.132812 L 229.5 360.132812 L 0 360.132812 Z M 0 0.132812 " fill-opacity="1" fill-rule="nonzero"/><path fill="#ffffff" d="M 0 0.132812 L 229.5 0.132812 L 229.5 352.632812 L 0 352.632812 Z M 0 0.132812 " fill-opacity="1" fill-rule="nonzero"/><path fill="#ffffff" d="M 0 0.132812 L 229.5 0.132812 L 229.5 352.632812 L 0 352.632812 Z M 0 0.132812 " fill-opacity="1" fill-rule="nonzero"/><path fill="#ffffff" d="M 0 0.132812 L 229.5 0.132812 L 229.5 352.632812 L 0 352.632812 Z M 0 0.132812 " fill-opacity="1" fill-rule="nonzero"/></g><g clip-path="url(#id2)"><path fill="#2ac1bc" d="M 0.0429688 0.132812 L 229.457031 0.132812 L 229.457031 30.132812 L 0.0429688 30.132812 L 0.0429688 0.132812 " fill-opacity="1" fill-rule="nonzero"/></g></svg>