<svg xmlns="http://www.w3.org/2000/svg" xmlns:xlink="http://www.w3.org/1999/xlink" width="306" zoomAndPan="magnify" viewBox="0 0 229.5 352.499998" height="470" preserveAspectRatio="xMidYMid meet" version="1.0"><defs><clipPath id="id1"><path d="M 0 0.132812 L 229 0.132812 L 229 351.867188 L 0 351.867188 Z M 0 0.132812 " clip-rule="nonzero"/></clipPath><clipPath id="id2"><path d="M 0 0.132812 L 229 0.132812 L 229 31 L 0 31 Z M 0 0.132812 " clip-rule="nonzero"/></clipPath></defs><g clip-path="url(#id1)"><path fill="rgb(100%, 100%, 100%)" d="M 0 0.132812 L 229.5 0.132812 L 229.5 360.132812 L 0 360.132812 Z M 0 0.132812 " fill-opacity="1" fill-rule="nonzero"/><path fill="rgb(100%, 100%, 100%)" d="M 0 0.132812 L 229.5 0.132812 L 229.5 352.632812 L 0 352.632812 Z M 0 0.132812 " fill-opacity="1" fill-rule="nonzero"/><path fill="rgb(100%, 100%, 100%)" d="M 0 0.132812 L 229.5 0.132812 L 229.5 352.632812 L 0 352.632812 Z M 0 0.132812 " fill-opacity="1" fill-rule="nonzero"/><path fill="rgb(100%, 100%, 100%)" d="M 0 0.132812 L 229.5 0.132812 L 229.5 352.632812 L 0 352.632812 Z M 0 0.132812 " fill-opacity="1" fill-rule="nonzero"/></g><g clip-path="url(#id2)"><path fill="rgb(97.24884%, 87.449646%, 100%)" d="M 0.0429688 0.132812 L 229.457031 0.132812 L 229.457031 30.132812 L 0.0429688 30.132812 L 0.0429688 0.132812 " fill-opacity="1" fill-rule="nonzero"/></g><path fill="rgb(0%, 0%, 0%)" d="M 208.386719 10.066406 C 205.625 10.066406 203.402344 12.292969 203.402344 15.050781 C 203.402344 17.8125 205.625 20.035156 208.386719 20.035156 C 211.121094 20.035156 213.371094 17.8125 213.371094 15.050781 C 213.371094 12.292969 211.121094 10.066406 208.386719 10.066406 Z M 208.386719 19.269531 C 206.058594 19.269531 204.167969 17.375 204.167969 15.050781 C 204.167969 12.726562 206.058594 10.835938 208.386719 10.835938 C 210.710938 10.835938 212.601562 12.726562 212.601562 15.050781 C 212.601562 17.375 210.710938 19.269531 208.386719 19.269531 Z M 208.386719 19.269531 " fill-opacity="1" fill-rule="nonzero"/><path fill="rgb(82.749939%, 100%, 89.408875%)" d="M 208.386719 10.835938 C 206.058594 10.835938 204.167969 12.726562 204.167969 15.050781 C 204.167969 17.375 206.058594 19.269531 208.386719 19.269531 C 210.710938 19.269531 212.601562 17.375 212.601562 15.050781 C 212.601562 12.726562 210.710938 10.835938 208.386719 10.835938 Z M 208.386719 10.835938 " fill-opacity="1" fill-rule="nonzero"/><path fill="rgb(0%, 0%, 0%)" d="M 194.746094 10.066406 C 191.988281 10.066406 189.765625 12.292969 189.765625 15.050781 C 189.765625 17.8125 191.988281 20.035156 194.746094 20.035156 C 197.480469 20.035156 199.730469 17.8125 199.730469 15.050781 C 199.730469 12.292969 197.480469 10.066406 194.746094 10.066406 Z M 194.746094 19.269531 C 192.421875 19.269531 190.53125 17.375 190.53125 15.050781 C 190.53125 12.726562 192.421875 10.835938 194.746094 10.835938 C 197.074219 10.835938 198.964844 12.726562 198.964844 15.050781 C 198.964844 17.375 197.074219 19.269531 194.746094 19.269531 Z M 194.746094 19.269531 " fill-opacity="1" fill-rule="nonzero"/><path fill="rgb(100%, 97.24884%, 81.568909%)" d="M 194.746094 10.835938 C 192.421875 10.835938 190.53125 12.726562 190.53125 15.050781 C 190.53125 17.375 192.421875 19.269531 194.746094 19.269531 C 197.074219 19.269531 198.964844 17.375 198.964844 15.050781 C 198.964844 12.726562 197.074219 10.835938 194.746094 10.835938 Z M 194.746094 10.835938 " fill-opacity="1" fill-rule="nonzero"/><path fill="rgb(0%, 0%, 0%)" d="M 180.894531 10.066406 C 178.136719 10.066406 175.914062 12.292969 175.914062 15.050781 C 175.914062 17.8125 178.136719 20.035156 180.894531 20.035156 C 183.628906 20.035156 185.878906 17.8125 185.878906 15.050781 C 185.878906 12.292969 183.628906 10.066406 180.894531 10.066406 Z M 180.894531 19.269531 C 178.570312 19.269531 176.679688 17.375 176.679688 15.050781 C 176.679688 12.726562 178.570312 10.835938 180.894531 10.835938 C 183.222656 10.835938 185.113281 12.726562 185.113281 15.050781 C 185.113281 17.375 183.222656 19.269531 180.894531 19.269531 Z M 180.894531 19.269531 " fill-opacity="1" fill-rule="nonzero"/><path fill="rgb(100%, 86.268616%, 84.709167%)" d="M 180.894531 10.835938 C 178.570312 10.835938 176.679688 12.726562 176.679688 15.050781 C 176.679688 17.375 178.570312 19.269531 180.894531 19.269531 C 183.222656 19.269531 185.113281 17.375 185.113281 15.050781 C 185.113281 12.726562 183.222656 10.835938 180.894531 10.835938 Z M 180.894531 10.835938 " fill-opacity="1" fill-rule="nonzero"/></svg>