<svg xmlns="http://www.w3.org/2000/svg" xmlns:xlink="http://www.w3.org/1999/xlink" width="850" zoomAndPan="magnify" viewBox="0 0 637.5 119.999999" height="160" preserveAspectRatio="xMidYMid meet" version="1.0"><defs><g/><clipPath id="id1"><path d="M 0 0.046875 L 637 0.046875 L 637 119.953125 L 0 119.953125 Z M 0 0.046875 " clip-rule="nonzero"/></clipPath><clipPath id="id2"><path d="M 126 0.046875 L 637 0.046875 L 637 119.953125 L 126 119.953125 Z M 126 0.046875 " clip-rule="nonzero"/></clipPath><clipPath id="id3"><path d="M 4.996094 2.847656 L 119.746094 2.847656 L 119.746094 117.597656 L 4.996094 117.597656 Z M 4.996094 2.847656 " clip-rule="nonzero"/></clipPath><clipPath id="id4"><path d="M 12.632812 18.625 L 111.5625 18.625 L 111.5625 109.367188 L 12.632812 109.367188 Z M 12.632812 18.625 " clip-rule="nonzero"/></clipPath></defs><g clip-path="url(#id1)"><path fill="rgb(100%, 100%, 100%)" d="M 0 0.046875 L 637.5 0.046875 L 637.5 127.546875 L 0 127.546875 Z M 0 0.046875 " fill-opacity="1" fill-rule="nonzero"/><path fill="rgb(100%, 100%, 100%)" d="M 0 0.046875 L 637.5 0.046875 L 637.5 120.046875 L 0 120.046875 Z M 0 0.046875 " fill-opacity="1" fill-rule="nonzero"/><path fill="rgb(100%, 100%, 100%)" d="M 0 0.046875 L 637.5 0.046875 L 637.5 120.046875 L 0 120.046875 Z M 0 0.046875 " fill-opacity="1" fill-rule="nonzero"/><path fill="rgb(100%, 100%, 100%)" d="M 0 0.046875 L 637.5 0.046875 L 637.5 120.046875 L 0 120.046875 Z M 0 0.046875 " fill-opacity="1" fill-rule="nonzero"/></g><g clip-path="url(#id2)"><path fill="rgb(83.918762%, 89.019775%, 86.669922%)" d="M 126.976562 -12.757812 L 637.726562 -12.757812 L 637.726562 132.742188 L 126.976562 132.742188 L 126.976562 -12.757812 " fill-opacity="1" fill-rule="nonzero"/></g><g clip-path="url(#id3)"><path fill="rgb(83.918762%, 89.019775%, 86.669922%)" d="M 119.746094 116.351562 L 119.746094 116.664062 C 119.746094 117.191406 119.339844 117.597656 118.8125 117.597656 L 118.5 117.597656 C 117.96875 117.597656 117.5625 117.191406 117.5625 116.664062 C 117.5625 116.320312 117.75 116.039062 118 115.851562 C 118.15625 115.570312 118.46875 115.414062 118.8125 115.414062 C 119.308594 115.414062 119.746094 115.820312 119.746094 116.351562 Z M 90.925781 115.726562 L 90.273438 115.726562 C 89.742188 115.726562 89.335938 116.132812 89.335938 116.664062 C 89.335938 117.191406 89.742188 117.597656 90.273438 117.597656 L 90.925781 117.597656 C 91.457031 117.597656 91.863281 117.191406 91.863281 116.664062 C 91.863281 116.132812 91.425781 115.726562 90.925781 115.726562 Z M 20.359375 115.726562 L 19.734375 115.726562 C 19.203125 115.726562 18.796875 116.132812 18.796875 116.664062 C 18.796875 117.191406 19.203125 117.597656 19.734375 117.597656 L 20.359375 117.597656 C 20.890625 117.597656 21.296875 117.191406 21.296875 116.664062 C 21.296875 116.132812 20.890625 115.726562 20.359375 115.726562 Z M 83.871094 115.726562 L 83.246094 115.726562 C 82.714844 115.726562 82.308594 116.132812 82.308594 116.664062 C 82.308594 117.191406 82.714844 117.597656 83.246094 117.597656 L 83.871094 117.597656 C 84.402344 117.597656 84.808594 117.191406 84.808594 116.664062 C 84.808594 116.132812 84.371094 115.726562 83.871094 115.726562 Z M 97.953125 115.726562 L 97.296875 115.726562 C 96.765625 115.726562 96.359375 116.132812 96.359375 116.664062 C 96.359375 117.191406 96.765625 117.597656 97.296875 117.597656 L 97.953125 117.597656 C 98.484375 117.597656 98.890625 117.191406 98.890625 116.664062 C 98.890625 116.132812 98.484375 115.726562 97.953125 115.726562 Z M 112.066406 115.726562 L 111.441406 115.726562 C 110.910156 115.726562 110.503906 116.132812 110.503906 116.664062 C 110.503906 117.191406 110.910156 117.597656 111.441406 117.597656 L 112.066406 117.597656 C 112.597656 117.597656 113.003906 117.191406 113.003906 116.664062 C 113.003906 116.132812 112.597656 115.726562 112.066406 115.726562 Z M 13.335938 115.726562 L 12.679688 115.726562 C 12.148438 115.726562 11.742188 116.132812 11.742188 116.664062 C 11.742188 117.191406 12.148438 117.597656 12.679688 117.597656 L 13.335938 117.597656 C 13.867188 117.597656 14.269531 117.191406 14.269531 116.664062 C 14.269531 116.132812 13.835938 115.726562 13.335938 115.726562 Z M 76.8125 115.726562 L 76.1875 115.726562 C 75.660156 115.726562 75.253906 116.132812 75.253906 116.664062 C 75.253906 117.191406 75.660156 117.597656 76.1875 117.597656 L 76.8125 117.597656 C 77.34375 117.597656 77.75 117.191406 77.75 116.664062 C 77.75 116.132812 77.3125 115.726562 76.8125 115.726562 Z M 105.007812 115.726562 L 104.386719 115.726562 C 103.855469 115.726562 103.449219 116.132812 103.449219 116.664062 C 103.449219 117.191406 103.855469 117.597656 104.386719 117.597656 L 105.007812 117.597656 C 105.539062 117.597656 105.945312 117.191406 105.945312 116.664062 C 105.945312 116.132812 105.539062 115.726562 105.007812 115.726562 Z M 55.644531 115.726562 L 54.988281 115.726562 C 54.457031 115.726562 54.050781 116.132812 54.050781 116.664062 C 54.050781 117.191406 54.457031 117.597656 54.988281 117.597656 L 55.644531 117.597656 C 56.175781 117.597656 56.582031 117.191406 56.582031 116.664062 C 56.582031 116.132812 56.175781 115.726562 55.644531 115.726562 Z M 34.472656 115.726562 L 33.816406 115.726562 C 33.285156 115.726562 32.882812 116.132812 32.882812 116.664062 C 32.882812 117.191406 33.285156 117.597656 33.816406 117.597656 L 34.472656 117.597656 C 35.003906 117.597656 35.410156 117.191406 35.410156 116.664062 C 35.410156 116.132812 35.003906 115.726562 34.472656 115.726562 Z M 62.699219 115.726562 L 62.042969 115.726562 C 61.515625 115.726562 61.109375 116.132812 61.109375 116.664062 C 61.109375 117.191406 61.515625 117.597656 62.042969 117.597656 L 62.699219 117.597656 C 63.230469 117.597656 63.636719 117.191406 63.636719 116.664062 C 63.636719 116.132812 63.199219 115.726562 62.699219 115.726562 Z M 48.585938 115.726562 L 47.960938 115.726562 C 47.429688 115.726562 47.027344 116.132812 47.027344 116.664062 C 47.027344 117.191406 47.429688 117.597656 47.960938 117.597656 L 48.585938 117.597656 C 49.117188 117.597656 49.523438 117.191406 49.523438 116.664062 C 49.523438 116.132812 49.117188 115.726562 48.585938 115.726562 Z M 41.53125 115.726562 L 40.90625 115.726562 C 40.375 115.726562 39.96875 116.132812 39.96875 116.664062 C 39.96875 117.191406 40.375 117.597656 40.90625 117.597656 L 41.5625 117.597656 C 42.09375 117.597656 42.5 117.191406 42.5 116.664062 C 42.5 116.132812 42.0625 115.726562 41.53125 115.726562 Z M 69.757812 115.726562 L 69.132812 115.726562 C 68.601562 115.726562 68.195312 116.132812 68.195312 116.664062 C 68.195312 117.191406 68.601562 117.597656 69.132812 117.597656 L 69.757812 117.597656 C 70.289062 117.597656 70.695312 117.191406 70.695312 116.664062 C 70.695312 116.132812 70.257812 115.726562 69.757812 115.726562 Z M 27.417969 115.726562 L 26.792969 115.726562 C 26.261719 115.726562 25.855469 116.132812 25.855469 116.664062 C 25.855469 117.191406 26.261719 117.597656 26.792969 117.597656 L 27.417969 117.597656 C 27.949219 117.597656 28.351562 117.191406 28.351562 116.664062 C 28.351562 116.132812 27.949219 115.726562 27.417969 115.726562 Z M 6.746094 115.851562 C 6.558594 115.570312 6.277344 115.414062 5.933594 115.414062 C 5.402344 115.414062 4.996094 115.820312 4.996094 116.351562 L 4.996094 116.664062 C 4.996094 117.191406 5.402344 117.597656 5.933594 117.597656 L 6.246094 117.597656 C 6.777344 117.597656 7.183594 117.191406 7.183594 116.664062 C 7.183594 116.320312 6.996094 116.007812 6.746094 115.851562 Z M 5.933594 110.855469 C 6.464844 110.855469 6.871094 110.449219 6.871094 109.917969 L 6.871094 109.292969 C 6.871094 108.761719 6.464844 108.355469 5.933594 108.355469 C 5.402344 108.355469 4.996094 108.761719 4.996094 109.292969 L 4.996094 109.917969 C 4.996094 110.449219 5.402344 110.855469 5.933594 110.855469 Z M 5.933594 33.261719 C 6.464844 33.261719 6.871094 32.855469 6.871094 32.324219 L 6.871094 31.667969 C 6.871094 31.136719 6.464844 30.730469 5.933594 30.730469 C 5.402344 30.730469 4.996094 31.136719 4.996094 31.667969 L 4.996094 32.324219 C 4.996094 32.855469 5.402344 33.261719 5.933594 33.261719 Z M 5.933594 54.433594 C 6.464844 54.433594 6.871094 54.027344 6.871094 53.496094 L 6.871094 52.839844 C 6.871094 52.308594 6.464844 51.902344 5.933594 51.902344 C 5.402344 51.902344 4.996094 52.308594 4.996094 52.839844 L 4.996094 53.496094 C 4.996094 54.027344 5.402344 54.433594 5.933594 54.433594 Z M 5.933594 61.488281 C 6.464844 61.488281 6.871094 61.082031 6.871094 60.550781 L 6.871094 59.894531 C 6.871094 59.367188 6.464844 58.960938 5.933594 58.960938 C 5.402344 58.960938 4.996094 59.367188 4.996094 59.894531 L 4.996094 60.550781 C 4.996094 61.050781 5.402344 61.488281 5.933594 61.488281 Z M 5.933594 47.375 C 6.464844 47.375 6.871094 46.96875 6.871094 46.4375 L 6.871094 45.8125 C 6.871094 45.28125 6.464844 44.878906 5.933594 44.878906 C 5.402344 44.878906 4.996094 45.28125 4.996094 45.8125 L 4.996094 46.4375 C 4.996094 46.96875 5.402344 47.375 5.933594 47.375 Z M 5.933594 40.316406 C 6.464844 40.316406 6.871094 39.914062 6.871094 39.382812 L 6.871094 38.757812 C 6.871094 38.226562 6.464844 37.820312 5.933594 37.820312 C 5.402344 37.820312 4.996094 38.226562 4.996094 38.757812 L 4.996094 39.414062 C 4.996094 39.914062 5.402344 40.316406 5.933594 40.316406 Z M 5.933594 12.121094 C 6.464844 12.121094 6.871094 11.714844 6.871094 11.1875 L 6.871094 10.53125 C 6.871094 10 6.464844 9.59375 5.933594 9.59375 C 5.402344 9.59375 4.996094 10 4.996094 10.53125 L 4.996094 11.1875 C 4.996094 11.683594 5.402344 12.121094 5.933594 12.121094 Z M 5.933594 19.148438 C 6.464844 19.148438 6.871094 18.742188 6.871094 18.210938 L 6.871094 17.585938 C 6.871094 17.054688 6.464844 16.648438 5.933594 16.648438 C 5.402344 16.648438 4.996094 17.054688 4.996094 17.585938 L 4.996094 18.210938 C 4.996094 18.742188 5.402344 19.148438 5.933594 19.148438 Z M 5.933594 68.546875 C 6.464844 68.546875 6.871094 68.140625 6.871094 67.609375 L 6.871094 66.984375 C 6.871094 66.453125 6.464844 66.046875 5.933594 66.046875 C 5.402344 66.046875 4.996094 66.453125 4.996094 66.984375 L 4.996094 67.609375 C 4.996094 68.109375 5.402344 68.546875 5.933594 68.546875 Z M 5.933594 26.203125 C 6.464844 26.203125 6.871094 25.800781 6.871094 25.269531 L 6.871094 24.644531 C 6.871094 24.113281 6.464844 23.707031 5.933594 23.707031 C 5.402344 23.707031 4.996094 24.113281 4.996094 24.644531 L 4.996094 25.269531 C 4.996094 25.800781 5.402344 26.203125 5.933594 26.203125 Z M 5.933594 89.714844 C 6.464844 89.714844 6.871094 89.308594 6.871094 88.777344 L 6.871094 88.121094 C 6.871094 87.59375 6.464844 87.1875 5.933594 87.1875 C 5.402344 87.1875 4.996094 87.59375 4.996094 88.121094 L 4.996094 88.777344 C 4.996094 89.277344 5.402344 89.714844 5.933594 89.714844 Z M 5.933594 96.742188 C 6.464844 96.742188 6.871094 96.335938 6.871094 95.804688 L 6.871094 95.148438 C 6.871094 94.617188 6.464844 94.210938 5.933594 94.210938 C 5.402344 94.210938 4.996094 94.617188 4.996094 95.148438 L 4.996094 95.804688 C 4.996094 96.335938 5.402344 96.742188 5.933594 96.742188 Z M 5.933594 103.796875 C 6.464844 103.796875 6.871094 103.390625 6.871094 102.859375 L 6.871094 102.238281 C 6.871094 101.707031 6.464844 101.300781 5.933594 101.300781 C 5.402344 101.300781 4.996094 101.707031 4.996094 102.238281 L 4.996094 102.859375 C 4.996094 103.390625 5.402344 103.796875 5.933594 103.796875 Z M 5.933594 82.660156 C 6.464844 82.660156 6.871094 82.253906 6.871094 81.722656 L 6.871094 81.097656 C 6.871094 80.566406 6.464844 80.160156 5.933594 80.160156 C 5.402344 80.160156 4.996094 80.566406 4.996094 81.097656 L 4.996094 81.722656 C 4.996094 82.222656 5.402344 82.660156 5.933594 82.660156 Z M 5.933594 75.601562 C 6.464844 75.601562 6.871094 75.195312 6.871094 74.664062 L 6.871094 74.039062 C 6.871094 73.511719 6.464844 73.105469 5.933594 73.105469 C 5.402344 73.105469 4.996094 73.511719 4.996094 74.039062 L 4.996094 74.664062 C 4.996094 75.164062 5.402344 75.601562 5.933594 75.601562 Z M 6.246094 2.847656 L 5.933594 2.847656 C 5.402344 2.847656 4.996094 3.253906 4.996094 3.785156 L 4.996094 4.097656 C 4.996094 4.628906 5.402344 5.035156 5.933594 5.035156 C 6.277344 5.035156 6.558594 4.847656 6.746094 4.597656 C 6.996094 4.410156 7.183594 4.128906 7.183594 3.785156 C 7.183594 3.253906 6.777344 2.847656 6.246094 2.847656 Z M 12.648438 4.722656 L 13.273438 4.722656 C 13.804688 4.722656 14.207031 4.316406 14.207031 3.785156 C 14.207031 3.253906 13.804688 2.847656 13.273438 2.847656 L 12.648438 2.847656 C 12.117188 2.847656 11.710938 3.253906 11.710938 3.785156 C 11.710938 4.316406 12.148438 4.722656 12.648438 4.722656 Z M 40.875 4.722656 L 41.53125 4.722656 C 42.0625 4.722656 42.46875 4.316406 42.46875 3.785156 C 42.46875 3.253906 42.0625 2.847656 41.53125 2.847656 L 40.875 2.847656 C 40.34375 2.847656 39.9375 3.253906 39.9375 3.785156 C 39.9375 4.316406 40.34375 4.722656 40.875 4.722656 Z M 26.761719 4.722656 L 27.386719 4.722656 C 27.917969 4.722656 28.320312 4.316406 28.320312 3.785156 C 28.320312 3.253906 27.917969 2.847656 27.386719 2.847656 L 26.761719 2.847656 C 26.230469 2.847656 25.824219 3.253906 25.824219 3.785156 C 25.824219 4.316406 26.261719 4.722656 26.761719 4.722656 Z M 33.816406 4.722656 L 34.441406 4.722656 C 34.972656 4.722656 35.378906 4.316406 35.378906 3.785156 C 35.378906 3.253906 34.972656 2.847656 34.441406 2.847656 L 33.816406 2.847656 C 33.285156 2.847656 32.882812 3.253906 32.882812 3.785156 C 32.882812 4.316406 33.316406 4.722656 33.816406 4.722656 Z M 19.703125 4.722656 L 20.359375 4.722656 C 20.890625 4.722656 21.296875 4.316406 21.296875 3.785156 C 21.296875 3.253906 20.890625 2.847656 20.359375 2.847656 L 19.703125 2.847656 C 19.171875 2.847656 18.765625 3.253906 18.765625 3.785156 C 18.765625 4.316406 19.203125 4.722656 19.703125 4.722656 Z M 90.242188 4.722656 L 90.863281 4.722656 C 91.394531 4.722656 91.800781 4.316406 91.800781 3.785156 C 91.800781 3.253906 91.394531 2.847656 90.863281 2.847656 L 90.242188 2.847656 C 89.710938 2.847656 89.304688 3.253906 89.304688 3.785156 C 89.304688 4.316406 89.742188 4.722656 90.242188 4.722656 Z M 97.296875 4.722656 L 97.921875 4.722656 C 98.453125 4.722656 98.859375 4.316406 98.859375 3.785156 C 98.859375 3.253906 98.453125 2.847656 97.921875 2.847656 L 97.296875 2.847656 C 96.765625 2.847656 96.359375 3.253906 96.359375 3.785156 C 96.359375 4.316406 96.796875 4.722656 97.296875 4.722656 Z M 83.183594 4.722656 L 83.808594 4.722656 C 84.339844 4.722656 84.746094 4.316406 84.746094 3.785156 C 84.746094 3.253906 84.339844 2.847656 83.808594 2.847656 L 83.183594 2.847656 C 82.652344 2.847656 82.246094 3.253906 82.246094 3.785156 C 82.246094 4.316406 82.683594 4.722656 83.183594 4.722656 Z M 111.410156 4.722656 L 112.035156 4.722656 C 112.566406 4.722656 112.972656 4.316406 112.972656 3.785156 C 112.972656 3.253906 112.566406 2.847656 112.035156 2.847656 L 111.410156 2.847656 C 110.878906 2.847656 110.472656 3.253906 110.472656 3.785156 C 110.472656 4.316406 110.878906 4.722656 111.410156 4.722656 Z M 104.355469 4.722656 L 104.976562 4.722656 C 105.507812 4.722656 105.914062 4.316406 105.914062 3.785156 C 105.914062 3.253906 105.507812 2.847656 104.976562 2.847656 L 104.355469 2.847656 C 103.824219 2.847656 103.417969 3.253906 103.417969 3.785156 C 103.417969 4.316406 103.855469 4.722656 104.355469 4.722656 Z M 62.042969 4.722656 L 62.699219 4.722656 C 63.230469 4.722656 63.636719 4.316406 63.636719 3.785156 C 63.636719 3.253906 63.230469 2.847656 62.699219 2.847656 L 62.042969 2.847656 C 61.515625 2.847656 61.109375 3.253906 61.109375 3.785156 C 61.109375 4.316406 61.515625 4.722656 62.042969 4.722656 Z M 76.125 4.722656 L 76.78125 4.722656 C 77.3125 4.722656 77.71875 4.316406 77.71875 3.785156 C 77.71875 3.253906 77.3125 2.847656 76.78125 2.847656 L 76.125 2.847656 C 75.597656 2.847656 75.191406 3.253906 75.191406 3.785156 C 75.191406 4.316406 75.628906 4.722656 76.125 4.722656 Z M 47.929688 4.722656 L 48.554688 4.722656 C 49.085938 4.722656 49.492188 4.316406 49.492188 3.785156 C 49.492188 3.253906 49.085938 2.847656 48.554688 2.847656 L 47.929688 2.847656 C 47.402344 2.847656 46.996094 3.253906 46.996094 3.785156 C 46.996094 4.316406 47.402344 4.722656 47.929688 4.722656 Z M 54.988281 4.722656 L 55.613281 4.722656 C 56.144531 4.722656 56.550781 4.316406 56.550781 3.785156 C 56.550781 3.253906 56.144531 2.847656 55.613281 2.847656 L 54.988281 2.847656 C 54.457031 2.847656 54.050781 3.253906 54.050781 3.785156 C 54.050781 4.316406 54.457031 4.722656 54.988281 4.722656 Z M 69.101562 4.722656 L 69.726562 4.722656 C 70.257812 4.722656 70.664062 4.316406 70.664062 3.785156 C 70.664062 3.253906 70.257812 2.847656 69.726562 2.847656 L 69.101562 2.847656 C 68.570312 2.847656 68.164062 3.253906 68.164062 3.785156 C 68.164062 4.316406 68.570312 4.722656 69.101562 4.722656 Z M 118.8125 2.847656 L 118.5 2.847656 C 117.96875 2.847656 117.5625 3.253906 117.5625 3.785156 C 117.5625 4.128906 117.75 4.410156 118 4.597656 C 118.15625 4.878906 118.46875 5.035156 118.8125 5.035156 C 119.339844 5.035156 119.746094 4.628906 119.746094 4.097656 L 119.746094 3.785156 C 119.746094 3.253906 119.308594 2.847656 118.8125 2.847656 Z M 118.8125 44.847656 C 118.28125 44.847656 117.875 45.25 117.875 45.78125 L 117.875 46.40625 C 117.875 46.9375 118.28125 47.34375 118.8125 47.34375 C 119.339844 47.34375 119.746094 46.9375 119.746094 46.40625 L 119.746094 45.78125 C 119.746094 45.25 119.308594 44.847656 118.8125 44.847656 Z M 118.8125 37.789062 C 118.28125 37.789062 117.875 38.195312 117.875 38.726562 L 117.875 39.382812 C 117.875 39.914062 118.28125 40.316406 118.8125 40.316406 C 119.339844 40.316406 119.746094 39.914062 119.746094 39.382812 L 119.746094 38.726562 C 119.746094 38.195312 119.308594 37.789062 118.8125 37.789062 Z M 118.8125 51.902344 C 118.28125 51.902344 117.875 52.308594 117.875 52.839844 L 117.875 53.464844 C 117.875 53.996094 118.28125 54.402344 118.8125 54.402344 C 119.339844 54.402344 119.746094 53.996094 119.746094 53.464844 L 119.746094 52.839844 C 119.746094 52.308594 119.308594 51.902344 118.8125 51.902344 Z M 118.8125 58.960938 C 118.28125 58.960938 117.875 59.367188 117.875 59.894531 L 117.875 60.550781 C 117.875 61.082031 118.28125 61.488281 118.8125 61.488281 C 119.339844 61.488281 119.746094 61.082031 119.746094 60.550781 L 119.746094 59.894531 C 119.746094 59.367188 119.308594 58.960938 118.8125 58.960938 Z M 118.8125 30.730469 C 118.28125 30.730469 117.875 31.136719 117.875 31.667969 L 117.875 32.292969 C 117.875 32.824219 118.28125 33.230469 118.8125 33.230469 C 119.339844 33.230469 119.746094 32.824219 119.746094 32.292969 L 119.746094 31.667969 C 119.746094 31.167969 119.308594 30.730469 118.8125 30.730469 Z M 118.8125 9.5625 C 118.28125 9.5625 117.875 9.96875 117.875 10.5 L 117.875 11.125 C 117.875 11.652344 118.28125 12.058594 118.8125 12.058594 C 119.339844 12.058594 119.746094 11.652344 119.746094 11.125 L 119.746094 10.5 C 119.746094 10 119.308594 9.5625 118.8125 9.5625 Z M 118.8125 16.617188 C 118.28125 16.617188 117.875 17.023438 117.875 17.554688 L 117.875 18.210938 C 117.875 18.742188 118.28125 19.148438 118.8125 19.148438 C 119.339844 19.148438 119.746094 18.742188 119.746094 18.210938 L 119.746094 17.554688 C 119.746094 17.054688 119.308594 16.617188 118.8125 16.617188 Z M 118.8125 108.324219 C 118.28125 108.324219 117.875 108.730469 117.875 109.261719 L 117.875 109.886719 C 117.875 110.417969 118.28125 110.824219 118.8125 110.824219 C 119.339844 110.824219 119.746094 110.417969 119.746094 109.886719 L 119.746094 109.261719 C 119.746094 108.730469 119.308594 108.324219 118.8125 108.324219 Z M 118.8125 23.675781 C 118.28125 23.675781 117.875 24.082031 117.875 24.613281 L 117.875 25.238281 C 117.875 25.769531 118.28125 26.171875 118.8125 26.171875 C 119.339844 26.171875 119.746094 25.769531 119.746094 25.238281 L 119.746094 24.613281 C 119.746094 24.113281 119.308594 23.675781 118.8125 23.675781 Z M 118.8125 66.015625 C 118.28125 66.015625 117.875 66.421875 117.875 66.953125 L 117.875 67.578125 C 117.875 68.109375 118.28125 68.515625 118.8125 68.515625 C 119.339844 68.515625 119.746094 68.109375 119.746094 67.578125 L 119.746094 66.953125 C 119.746094 66.421875 119.308594 66.015625 118.8125 66.015625 Z M 118.8125 101.269531 C 118.28125 101.269531 117.875 101.675781 117.875 102.207031 L 117.875 102.828125 C 117.875 103.359375 118.28125 103.765625 118.8125 103.765625 C 119.339844 103.765625 119.746094 103.359375 119.746094 102.828125 L 119.746094 102.207031 C 119.746094 101.707031 119.308594 101.269531 118.8125 101.269531 Z M 118.8125 87.15625 C 118.28125 87.15625 117.875 87.5625 117.875 88.089844 L 117.875 88.714844 C 117.875 89.246094 118.28125 89.652344 118.8125 89.652344 C 119.339844 89.652344 119.746094 89.246094 119.746094 88.714844 L 119.746094 88.089844 C 119.746094 87.59375 119.308594 87.15625 118.8125 87.15625 Z M 118.8125 94.210938 C 118.28125 94.210938 117.875 94.617188 117.875 95.148438 L 117.875 95.773438 C 117.875 96.304688 118.28125 96.710938 118.8125 96.710938 C 119.339844 96.710938 119.746094 96.304688 119.746094 95.773438 L 119.746094 95.148438 C 119.746094 94.648438 119.308594 94.210938 118.8125 94.210938 Z M 118.8125 73.042969 C 118.28125 73.042969 117.875 73.449219 117.875 73.976562 L 117.875 74.632812 C 117.875 75.164062 118.28125 75.570312 118.8125 75.570312 C 119.339844 75.570312 119.746094 75.164062 119.746094 74.632812 L 119.746094 73.976562 C 119.746094 73.480469 119.308594 73.042969 118.8125 73.042969 Z M 118.8125 80.097656 C 118.28125 80.097656 117.875 80.503906 117.875 81.035156 L 117.875 81.660156 C 117.875 82.191406 118.28125 82.597656 118.8125 82.597656 C 119.339844 82.597656 119.746094 82.191406 119.746094 81.660156 L 119.746094 81.035156 C 119.746094 80.535156 119.308594 80.097656 118.8125 80.097656 Z M 118.8125 80.097656 " fill-opacity="1" fill-rule="nonzero"/></g><path fill="rgb(100%, 89.7995%, 74.508667%)" d="M 97.59375 107.6875 C 95.042969 108.261719 92.417969 108.523438 89.804688 108.464844 C 89.113281 108.445312 88.570312 107.859375 88.601562 107.167969 C 88.824219 101.820312 88.113281 96.46875 87.402344 91.160156 C 86.96875 87.898438 86.53125 84.636719 86.097656 81.378906 C 85.480469 76.757812 84.863281 72.132812 83.980469 67.554688 C 83.53125 65.230469 83.011719 62.902344 82.066406 60.730469 C 81.15625 58.644531 79.867188 56.742188 78.441406 54.96875 C 76.472656 52.523438 74.179688 50.269531 71.394531 48.816406 C 66.535156 46.289062 60.523438 46.488281 55.496094 48.660156 C 50.46875 50.835938 46.375 54.820312 43.363281 59.394531 C 41.238281 62.625 39.597656 66.175781 38.523438 69.890625 C 34.984375 82.117188 37.648438 95.34375 35.347656 107.847656 C 35.234375 108.464844 34.683594 108.898438 34.058594 108.867188 L 27.15625 108.507812 C 26.523438 108.472656 26.015625 107.96875 25.980469 107.335938 C 25.292969 94.804688 24.457031 81.609375 27.289062 69.425781 C 30.296875 56.46875 37.589844 44.023438 49.078125 37.300781 C 50.710938 36.34375 52.421875 35.507812 54.226562 34.929688 C 56.621094 34.164062 59.140625 33.871094 61.652344 33.730469 C 65.378906 33.523438 69.121094 33.632812 72.828125 34.066406 C 75.195312 34.34375 77.566406 34.785156 79.738281 35.765625 C 82.492188 37.007812 84.800781 39.070312 86.78125 41.351562 C 89.039062 43.957031 90.925781 46.882812 92.367188 50.015625 C 94.652344 54.984375 95.785156 60.390625 96.890625 65.746094 C 99.65625 79.140625 100.40625 93.085938 98.5625 106.640625 C 98.492188 107.15625 98.101562 107.570312 97.59375 107.6875 " fill-opacity="1" fill-rule="nonzero"/><path fill="rgb(97.648621%, 83.529663%, 80.778503%)" d="M 81.167969 107.160156 C 82.207031 107.183594 83.007812 106.261719 82.847656 105.234375 C 80.570312 90.734375 81.714844 75.625 77.167969 61.671875 C 76.429688 59.410156 75.503906 57.125 73.804688 55.460938 C 71.503906 53.210938 68.121094 52.425781 64.90625 52.363281 C 60.613281 52.28125 56.21875 53.371094 52.78125 55.933594 C 51.164062 57.144531 49.789062 58.648438 48.582031 60.265625 C 42.46875 68.480469 40.929688 79.128906 39.769531 89.296875 C 39.101562 95.1875 38.492188 101.085938 38.203125 107.007812 C 38.160156 107.957031 38.914062 108.753906 39.867188 108.761719 C 42.046875 108.773438 44.171875 108.859375 46.351562 108.871094 C 47.269531 108.875 48.015625 108.132812 48.027344 107.214844 C 48.171875 97.644531 49.246094 88.101562 50.671875 78.636719 C 51.222656 74.992188 51.882812 71.203125 54.066406 68.234375 C 55.964844 65.65625 58.957031 63.910156 62.140625 63.523438 C 63.425781 63.367188 64.792969 63.445312 65.917969 64.089844 C 67.125 64.785156 67.890625 66.046875 68.511719 67.296875 C 69.191406 68.660156 69.761719 70.078125 70.214844 71.53125 C 71.078125 74.277344 71.527344 77.128906 71.972656 79.972656 C 72.257812 81.796875 72.542969 83.621094 72.832031 85.445312 C 73.875 92.101562 74.921875 98.808594 74.820312 105.535156 C 74.804688 106.496094 75.589844 107.277344 76.550781 107.238281 C 78.070312 107.179688 79.644531 107.128906 81.167969 107.160156 " fill-opacity="1" fill-rule="nonzero"/><g clip-path="url(#id4)"><path fill="rgb(83.918762%, 89.019775%, 86.669922%)" d="M 33.300781 29.558594 C 30.5625 31.519531 28.085938 33.878906 26.039062 36.554688 C 23.921875 39.320312 22.460938 42.523438 21.15625 45.75 C 13.199219 65.464844 10.886719 87.421875 13.914062 108.464844 C 16.761719 108.238281 19.671875 108.140625 22.507812 108.480469 C 22.5 102.8125 22.53125 97.144531 22.605469 91.476562 C 22.761719 79.175781 23.191406 66.496094 28.253906 55.28125 C 30.207031 50.960938 32.679688 46.878906 35.386719 42.988281 C 38.203125 38.945312 45.597656 33.226562 48.363281 32.109375 C 54.039062 29.820312 59.964844 27.9375 66.074219 27.59375 C 72.183594 27.25 78.539062 28.558594 83.488281 32.152344 C 88.992188 36.15625 94.917969 43.390625 97.125 49.824219 C 101.6875 63.136719 102.945312 75.074219 102.699219 91 C 102.609375 96.667969 102.398438 102.824219 102.726562 108.480469 C 104.648438 109.160156 106.765625 109.300781 108.804688 109.363281 C 109.402344 109.382812 110.039062 109.359375 110.527344 109.015625 C 111.285156 108.476562 111.367188 107.402344 111.378906 106.476562 C 111.410156 104.101562 111.4375 101.730469 111.46875 99.355469 C 111.644531 85.507812 111.8125 71.566406 109.492188 57.914062 C 108.117188 49.792969 105.808594 41.699219 101.410156 34.730469 C 97.015625 27.765625 90.335938 21.984375 82.359375 19.910156 C 78.953125 19.023438 75.410156 18.828125 71.894531 18.671875 C 66.488281 18.4375 48.519531 18.667969 33.300781 29.558594 " fill-opacity="1" fill-rule="nonzero"/></g><g fill="rgb(99.21875%, 38.038635%, 33.329773%)" fill-opacity="0.302"><g transform="translate(316.797019, 114.138399)"><g><path d="M 31.917969 -26.378906 C 30.238281 -17.269531 23.660156 -12.792969 18.273438 -11.855469 C 12.949219 -10.929688 7.144531 -13.183594 6.371094 -17.628906 C 6.195312 -18.636719 6.128906 -19.808594 6.335938 -21.023438 L 10.707031 -46.144531 C 11.550781 -50.875 14.195312 -52.027344 15.8125 -52.308594 C 17.363281 -52.578125 18.605469 -51.824219 18.957031 -49.804688 C 19.121094 -48.859375 19.0625 -47.601562 18.757812 -46.160156 C 18.636719 -45.652344 18.652344 -45.167969 18.734375 -44.699219 C 19.144531 -42.339844 21.773438 -40.785156 24.402344 -41.242188 C 26.757812 -41.652344 29.105469 -43.726562 29.542969 -48.382812 C 29.710938 -50.21875 29.632812 -51.871094 29.386719 -53.285156 C 28.09375 -60.695312 21.484375 -63.984375 13.804688 -62.648438 C 8.886719 -61.792969 1.625 -58.445312 -0.1875 -47.71875 L -4.421875 -22.203125 C -4.796875 -19.988281 -4.804688 -17.625 -4.453125 -15.605469 C -2.914062 -6.78125 6.398438 -1.113281 18.121094 -3.15625 C 27.484375 -4.785156 38.308594 -11.597656 40.1875 -25.527344 C 40.226562 -26.089844 40.210938 -26.574219 40.140625 -26.976562 C 39.730469 -29.335938 37.410156 -30.320312 35.320312 -29.953125 C 33.570312 -29.648438 32.035156 -28.480469 31.917969 -26.378906 Z M 31.917969 -26.378906 "/></g></g></g><g fill="rgb(99.21875%, 38.038635%, 33.329773%)" fill-opacity="0.302"><g transform="translate(349.738501, 108.404394)"><g><path d="M 35 -26.21875 C 33.441406 -17.621094 30.199219 -13.515625 27.167969 -12.988281 C 25.886719 -12.765625 24.949219 -13.367188 24.773438 -14.375 C 24.726562 -14.644531 24.738281 -14.996094 24.824219 -15.289062 L 27.617188 -31.945312 C 27.863281 -33.308594 27.789062 -34.542969 27.589844 -35.6875 C 26.652344 -41.078125 21.679688 -44.515625 16.222656 -43.566406 C 14.605469 -43.285156 13.375 -42.792969 12.066406 -41.941406 L 14.152344 -55.074219 C 14.300781 -56.210938 14.460938 -57.28125 14.308594 -58.15625 C 13.816406 -60.984375 11.3125 -62.214844 9.089844 -61.828125 C 6.460938 -61.371094 5.113281 -59.539062 4.457031 -55.746094 L -3.738281 -7.121094 C -3.910156 -6.121094 -3.894531 -5.222656 -3.753906 -4.414062 C -3.226562 -1.382812 -0.671875 0.117188 1.617188 -0.28125 C 3.570312 -0.621094 5.378906 -2.1875 5.898438 -5.191406 L 10.039062 -29.648438 C 11.007812 -32.457031 12.957031 -34.808594 15.046875 -35.171875 C 16.394531 -35.40625 17.511719 -34.558594 17.726562 -33.347656 C 17.796875 -32.941406 17.796875 -32.527344 17.667969 -32.085938 L 15.199219 -17.152344 C 14.941406 -15.441406 14.929688 -13.914062 15.164062 -12.566406 C 16.265625 -6.234375 22.230469 -3.871094 27.957031 -4.867188 C 34.355469 -5.980469 41.007812 -11.234375 43.417969 -26.089844 C 43.472656 -26.585938 43.46875 -27 43.398438 -27.40625 C 43.035156 -29.492188 40.78125 -30.488281 38.625 -30.113281 C 36.941406 -29.820312 35.285156 -28.5625 35 -26.21875 Z M 35 -26.21875 "/></g></g></g><g fill="rgb(99.21875%, 38.038635%, 33.329773%)" fill-opacity="0.302"><g transform="translate(385.84614, 102.119268)"><g><path d="M 38.277344 -30.121094 C 36.390625 -29.792969 34.5 -28.285156 34.136719 -25.585938 C 32.953125 -16.839844 29.1875 -13.339844 26.15625 -12.8125 C 25.011719 -12.613281 24.234375 -13.101562 24.046875 -14.179688 C 23.953125 -14.71875 23.96875 -15.417969 24.042969 -16.191406 L 27.789062 -39.332031 C 27.917969 -40.1875 27.921875 -40.953125 27.804688 -41.625 C 27.289062 -44.589844 24.59375 -45.71875 22.101562 -45.285156 C 20.214844 -44.957031 18.414062 -43.738281 17.628906 -41.867188 C 16.0625 -42.496094 13.257812 -43.050781 9.824219 -42.453125 C 5.378906 -41.679688 0.949219 -38.410156 0.03125 -32.90625 L -3.144531 -13.679688 C -3.339844 -12.398438 -3.394531 -11.140625 -3.183594 -9.925781 C -2.210938 -4.335938 3.097656 -0.539062 9.027344 -1.570312 C 12.195312 -2.121094 15.179688 -4.101562 17.285156 -6.757812 C 19.980469 -4.035156 24.859375 -4.328125 26.878906 -4.679688 C 32.472656 -5.652344 39.457031 -9.78125 41.867188 -21.445312 C 42.355469 -24.238281 42.800781 -26.050781 42.589844 -27.265625 C 42.191406 -29.554688 40.230469 -30.460938 38.277344 -30.121094 Z M 15.925781 -26.925781 L 14.441406 -16.324219 C 13.789062 -11.699219 11.402344 -10.246094 9.988281 -10 C 8.507812 -9.742188 7.601562 -10.554688 7.332031 -12.105469 C 7.179688 -12.980469 7.242188 -13.824219 7.339844 -14.464844 L 9.292969 -28.757812 C 9.855469 -33.089844 11.648438 -33.957031 12.726562 -34.144531 C 14.007812 -34.367188 15.644531 -33.332031 16.042969 -31.042969 C 16.21875 -30.03125 16.171875 -28.703125 15.925781 -26.925781 Z M 15.925781 -26.925781 "/></g></g></g><g fill="rgb(99.21875%, 38.038635%, 33.329773%)" fill-opacity="0.302"><g transform="translate(421.212768, 95.963127)"><g><path d="M 7.316406 -12.585938 L 14.335938 -56.007812 C 14.464844 -56.863281 14.457031 -57.695312 14.339844 -58.371094 C 13.894531 -60.929688 11.175781 -62.191406 9.15625 -61.839844 C 6.597656 -61.394531 5.15625 -59.6875 4.609375 -56.46875 L -2.4375 -14.011719 C -2.707031 -12.367188 -2.730469 -10.90625 -2.484375 -9.492188 C -1.40625 -3.296875 4.3125 -0.75 10.238281 -1.78125 C 16.640625 -2.894531 23.964844 -8.265625 26.242188 -23.101562 C 26.292969 -23.59375 26.277344 -24.078125 26.207031 -24.480469 C 25.832031 -26.636719 23.675781 -27.859375 21.589844 -27.496094 C 19.90625 -27.203125 18.261719 -25.875 17.753906 -23.21875 C 16.128906 -14.605469 12.820312 -10.492188 9.652344 -9.941406 C 8.304688 -9.707031 7.421875 -10.382812 7.246094 -11.394531 C 7.199219 -11.664062 7.253906 -12.160156 7.316406 -12.585938 Z M 7.316406 -12.585938 "/></g></g></g><g fill="rgb(99.21875%, 38.038635%, 33.329773%)" fill-opacity="0.302"><g transform="translate(440.007606, 92.691577)"><g><path d="M 7.316406 -12.585938 L 14.335938 -56.007812 C 14.464844 -56.863281 14.457031 -57.695312 14.339844 -58.371094 C 13.894531 -60.929688 11.175781 -62.191406 9.15625 -61.839844 C 6.597656 -61.394531 5.15625 -59.6875 4.609375 -56.46875 L -2.4375 -14.011719 C -2.707031 -12.367188 -2.730469 -10.90625 -2.484375 -9.492188 C -1.40625 -3.296875 4.3125 -0.75 10.238281 -1.78125 C 16.640625 -2.894531 23.964844 -8.265625 26.242188 -23.101562 C 26.292969 -23.59375 26.277344 -24.078125 26.207031 -24.480469 C 25.832031 -26.636719 23.675781 -27.859375 21.589844 -27.496094 C 19.90625 -27.203125 18.261719 -25.875 17.753906 -23.21875 C 16.128906 -14.605469 12.820312 -10.492188 9.652344 -9.941406 C 8.304688 -9.707031 7.421875 -10.382812 7.246094 -11.394531 C 7.199219 -11.664062 7.253906 -12.160156 7.316406 -12.585938 Z M 7.316406 -12.585938 "/></g></g></g><g fill="rgb(99.21875%, 38.038635%, 33.329773%)" fill-opacity="0.302"><g transform="translate(458.802443, 89.420028)"><g><path d="M 30.78125 -24.929688 C 29.175781 -16.601562 22.65625 -12.203125 16.929688 -11.207031 C 12.011719 -10.351562 8.5 -12.167969 7.960938 -15.265625 C 7.855469 -15.875 7.816406 -16.492188 7.96875 -17.210938 L 8.285156 -18.585938 C 10.453125 -17.714844 13.015625 -17.328125 15.710938 -17.796875 C 21.84375 -18.863281 26.5625 -23.640625 27.328125 -30.019531 C 27.441406 -31.359375 27.421875 -32.675781 27.21875 -33.820312 C 26.105469 -40.21875 20.199219 -44.257812 12.585938 -42.933594 C 6.589844 -41.890625 1.339844 -37.367188 0.152344 -30.21875 L -1.816406 -18.007812 C -2.074219 -16.296875 -2.128906 -14.621094 -1.859375 -13.070312 C -0.464844 -5.054688 7.949219 -1.382812 17.785156 -3.097656 C 27.148438 -4.726562 36.996094 -11.160156 39.203125 -24.800781 C 39.308594 -25.375 39.296875 -25.859375 39.226562 -26.261719 C 38.863281 -28.351562 36.777344 -29.167969 34.753906 -28.816406 C 32.867188 -28.488281 31.023438 -27.125 30.78125 -24.929688 Z M 13.765625 -34.949219 C 15.652344 -35.277344 17.136719 -33.9375 17.476562 -31.984375 C 17.570312 -31.445312 17.597656 -30.894531 17.488281 -30.320312 C 17.203125 -27.980469 15.320312 -26.820312 13.300781 -26.46875 C 12.019531 -26.246094 10.691406 -26.292969 9.65625 -26.667969 L 10.367188 -30.957031 C 10.746094 -33.171875 12.21875 -34.679688 13.765625 -34.949219 Z M 13.765625 -34.949219 "/></g></g></g><g fill="rgb(99.21875%, 38.038635%, 33.329773%)" fill-opacity="0.302"><g transform="translate(490.73346, 83.861911)"><g><path d="M 34.214844 -25.945312 C 32.65625 -17.34375 29.527344 -13.398438 26.359375 -12.847656 C 25.148438 -12.636719 24.367188 -13.125 24.167969 -14.269531 C 24.085938 -14.742188 24.128906 -15.304688 24.210938 -16.015625 L 26.863281 -31.882812 C 27.101562 -33.3125 27.160156 -34.574219 26.960938 -35.71875 C 26.023438 -41.109375 20.738281 -44.351562 15.347656 -43.414062 C 12.71875 -42.957031 10.738281 -41.988281 9.207031 -40.402344 C 8.59375 -41.542969 6.792969 -41.925781 4.972656 -41.609375 C 3.085938 -41.28125 1.421875 -40.085938 1.074219 -38.082031 L -4.699219 -4.664062 C -4.796875 -4.023438 -4.769531 -3.472656 -4.675781 -2.933594 C -4.242188 -0.441406 -2.066406 0.5 0.0898438 0.121094 C 2.449219 -0.289062 4.886719 -2.238281 5.367188 -5.445312 C 6.589844 -12.390625 8.214844 -22.183594 9.378906 -29.050781 C 10.613281 -32.734375 12.6875 -34.761719 14.574219 -35.089844 C 15.789062 -35.300781 16.804688 -34.644531 17.027344 -33.363281 C 17.109375 -32.894531 17.082031 -32.261719 16.984375 -31.621094 L 14.480469 -16.886719 C 14.210938 -15.246094 14.132812 -13.703125 14.378906 -12.289062 C 15.457031 -6.09375 21.152344 -3.683594 26.878906 -4.679688 C 33.75 -5.875 40.285156 -11.800781 42.644531 -25.746094 C 42.753906 -26.320312 42.796875 -26.882812 42.714844 -27.355469 C 42.339844 -29.511719 40.183594 -30.316406 38.164062 -29.964844 C 36.34375 -29.648438 34.5 -28.285156 34.214844 -25.945312 Z M 34.214844 -25.945312 "/></g></g></g><g fill="rgb(99.21875%, 38.038635%, 33.329773%)" fill-opacity="0.302"><g transform="translate(526.100083, 77.705771)"><g><path d="M 24.78125 -10.351562 L 29.539062 -38.042969 C 29.765625 -39.539062 29.769531 -40.71875 29.617188 -41.59375 C 29.085938 -44.625 26.894531 -44.867188 25.960938 -45.054688 C 25.53125 -45.117188 25.046875 -45.101562 24.578125 -45.019531 C 22.554688 -44.667969 20.644531 -43.292969 20.246094 -40.796875 C 17.53125 -42.824219 14.808594 -43.320312 11.238281 -42.699219 C 6.253906 -41.832031 1.492188 -38.085938 0.359375 -31.433594 L -2.53125 -14.136719 C -2.753906 -12.636719 -2.765625 -11.109375 -2.53125 -9.761719 C -1.605469 -4.441406 2.722656 -1.515625 7.476562 -1.300781 C 1.421875 1 -6.171875 4.820312 -7.03125 11.84375 C -7.167969 13.046875 -7.128906 14.082031 -6.953125 15.089844 C -5.8125 21.625 1 24.882812 7.601562 23.734375 C 14.269531 22.570312 19.914062 17.910156 21.316406 9.617188 L 22.925781 0.519531 C 32.03125 -4.1875 41.019531 -11.164062 43.207031 -26.121094 C 43.3125 -26.695312 43.289062 -27.246094 43.207031 -27.71875 C 42.808594 -30.007812 40.820312 -31.050781 38.800781 -30.699219 C 36.980469 -30.382812 35.226562 -28.898438 34.742188 -26.105469 C 33.445312 -18.800781 29.632812 -13.972656 24.78125 -10.351562 Z M 18.261719 -30.664062 L 15.617188 -15.558594 C 14.714844 -12.765625 12.75 -10.480469 10.460938 -10.082031 C 8.84375 -9.800781 7.492188 -10.394531 7.234375 -11.878906 C 7.175781 -12.214844 7.214844 -12.777344 7.269531 -13.273438 L 10.351562 -31.4375 C 10.699219 -33.441406 12.082031 -34.65625 13.566406 -34.914062 C 15.652344 -35.277344 17.742188 -34.042969 18.164062 -31.617188 C 18.210938 -31.351562 18.269531 -31.011719 18.261719 -30.664062 Z M 11.136719 5.765625 L 10.316406 10.628906 C 9.808594 13.285156 7.941406 14.929688 5.921875 15.28125 C 4.371094 15.550781 3.46875 14.734375 3.257812 13.523438 C 3.1875 13.117188 3.226562 12.554688 3.347656 12.050781 C 3.878906 9.527344 6.957031 7.671875 11.136719 5.765625 Z M 11.136719 5.765625 "/></g></g></g><g fill="rgb(99.21875%, 38.038635%, 33.329773%)" fill-opacity="0.302"><g transform="translate(562.073004, 71.444094)"><g><path d="M 30.78125 -24.929688 C 29.175781 -16.601562 22.65625 -12.203125 16.929688 -11.207031 C 12.011719 -10.351562 8.5 -12.167969 7.960938 -15.265625 C 7.855469 -15.875 7.816406 -16.492188 7.96875 -17.210938 L 8.285156 -18.585938 C 10.453125 -17.714844 13.015625 -17.328125 15.710938 -17.796875 C 21.84375 -18.863281 26.5625 -23.640625 27.328125 -30.019531 C 27.441406 -31.359375 27.421875 -32.675781 27.21875 -33.820312 C 26.105469 -40.21875 20.199219 -44.257812 12.585938 -42.933594 C 6.589844 -41.890625 1.339844 -37.367188 0.152344 -30.21875 L -1.816406 -18.007812 C -2.074219 -16.296875 -2.128906 -14.621094 -1.859375 -13.070312 C -0.464844 -5.054688 7.949219 -1.382812 17.785156 -3.097656 C 27.148438 -4.726562 36.996094 -11.160156 39.203125 -24.800781 C 39.308594 -25.375 39.296875 -25.859375 39.226562 -26.261719 C 38.863281 -28.351562 36.777344 -29.167969 34.753906 -28.816406 C 32.867188 -28.488281 31.023438 -27.125 30.78125 -24.929688 Z M 13.765625 -34.949219 C 15.652344 -35.277344 17.136719 -33.9375 17.476562 -31.984375 C 17.570312 -31.445312 17.597656 -30.894531 17.488281 -30.320312 C 17.203125 -27.980469 15.320312 -26.820312 13.300781 -26.46875 C 12.019531 -26.246094 10.691406 -26.292969 9.65625 -26.667969 L 10.367188 -30.957031 C 10.746094 -33.171875 12.21875 -34.679688 13.765625 -34.949219 Z M 13.765625 -34.949219 "/></g></g></g><g fill="rgb(99.21875%, 38.038635%, 33.329773%)" fill-opacity="0.502"><g transform="translate(313.601858, 110.574115)"><g><path d="M 31.917969 -26.378906 C 30.238281 -17.269531 23.660156 -12.792969 18.273438 -11.855469 C 12.949219 -10.929688 7.144531 -13.183594 6.371094 -17.628906 C 6.195312 -18.636719 6.128906 -19.808594 6.335938 -21.023438 L 10.707031 -46.144531 C 11.550781 -50.875 14.195312 -52.027344 15.8125 -52.308594 C 17.363281 -52.578125 18.605469 -51.824219 18.957031 -49.804688 C 19.121094 -48.859375 19.0625 -47.601562 18.757812 -46.160156 C 18.636719 -45.652344 18.652344 -45.167969 18.734375 -44.699219 C 19.144531 -42.339844 21.773438 -40.785156 24.402344 -41.242188 C 26.757812 -41.652344 29.105469 -43.726562 29.542969 -48.382812 C 29.710938 -50.21875 29.632812 -51.871094 29.386719 -53.285156 C 28.09375 -60.695312 21.484375 -63.984375 13.804688 -62.648438 C 8.886719 -61.792969 1.625 -58.445312 -0.1875 -47.71875 L -4.421875 -22.203125 C -4.796875 -19.988281 -4.804688 -17.625 -4.453125 -15.605469 C -2.914062 -6.78125 6.398438 -1.113281 18.121094 -3.15625 C 27.484375 -4.785156 38.308594 -11.597656 40.1875 -25.527344 C 40.226562 -26.089844 40.210938 -26.574219 40.140625 -26.976562 C 39.730469 -29.335938 37.410156 -30.320312 35.320312 -29.953125 C 33.570312 -29.648438 32.035156 -28.480469 31.917969 -26.378906 Z M 31.917969 -26.378906 "/></g></g></g><g fill="rgb(99.21875%, 38.038635%, 33.329773%)" fill-opacity="0.502"><g transform="translate(346.543341, 104.84011)"><g><path d="M 35 -26.21875 C 33.441406 -17.621094 30.199219 -13.515625 27.167969 -12.988281 C 25.886719 -12.765625 24.949219 -13.367188 24.773438 -14.375 C 24.726562 -14.644531 24.738281 -14.996094 24.824219 -15.289062 L 27.617188 -31.945312 C 27.863281 -33.308594 27.789062 -34.542969 27.589844 -35.6875 C 26.652344 -41.078125 21.679688 -44.515625 16.222656 -43.566406 C 14.605469 -43.285156 13.375 -42.792969 12.066406 -41.941406 L 14.152344 -55.074219 C 14.300781 -56.210938 14.460938 -57.28125 14.308594 -58.15625 C 13.816406 -60.984375 11.3125 -62.214844 9.089844 -61.828125 C 6.460938 -61.371094 5.113281 -59.539062 4.457031 -55.746094 L -3.738281 -7.121094 C -3.910156 -6.121094 -3.894531 -5.222656 -3.753906 -4.414062 C -3.226562 -1.382812 -0.671875 0.117188 1.617188 -0.28125 C 3.570312 -0.621094 5.378906 -2.1875 5.898438 -5.191406 L 10.039062 -29.648438 C 11.007812 -32.457031 12.957031 -34.808594 15.046875 -35.171875 C 16.394531 -35.40625 17.511719 -34.558594 17.726562 -33.347656 C 17.796875 -32.941406 17.796875 -32.527344 17.667969 -32.085938 L 15.199219 -17.152344 C 14.941406 -15.441406 14.929688 -13.914062 15.164062 -12.566406 C 16.265625 -6.234375 22.230469 -3.871094 27.957031 -4.867188 C 34.355469 -5.980469 41.007812 -11.234375 43.417969 -26.089844 C 43.472656 -26.585938 43.46875 -27 43.398438 -27.40625 C 43.035156 -29.492188 40.78125 -30.488281 38.625 -30.113281 C 36.941406 -29.820312 35.285156 -28.5625 35 -26.21875 Z M 35 -26.21875 "/></g></g></g><g fill="rgb(99.21875%, 38.038635%, 33.329773%)" fill-opacity="0.502"><g transform="translate(382.65098, 98.554984)"><g><path d="M 38.277344 -30.121094 C 36.390625 -29.792969 34.5 -28.285156 34.136719 -25.585938 C 32.953125 -16.839844 29.1875 -13.339844 26.15625 -12.8125 C 25.011719 -12.613281 24.234375 -13.101562 24.046875 -14.179688 C 23.953125 -14.71875 23.96875 -15.417969 24.042969 -16.191406 L 27.789062 -39.332031 C 27.917969 -40.1875 27.921875 -40.953125 27.804688 -41.625 C 27.289062 -44.589844 24.59375 -45.71875 22.101562 -45.285156 C 20.214844 -44.957031 18.414062 -43.738281 17.628906 -41.867188 C 16.0625 -42.496094 13.257812 -43.050781 9.824219 -42.453125 C 5.378906 -41.679688 0.949219 -38.410156 0.03125 -32.90625 L -3.144531 -13.679688 C -3.339844 -12.398438 -3.394531 -11.140625 -3.183594 -9.925781 C -2.210938 -4.335938 3.097656 -0.539062 9.027344 -1.570312 C 12.195312 -2.121094 15.179688 -4.101562 17.285156 -6.757812 C 19.980469 -4.035156 24.859375 -4.328125 26.878906 -4.679688 C 32.472656 -5.652344 39.457031 -9.78125 41.867188 -21.445312 C 42.355469 -24.238281 42.800781 -26.050781 42.589844 -27.265625 C 42.191406 -29.554688 40.230469 -30.460938 38.277344 -30.121094 Z M 15.925781 -26.925781 L 14.441406 -16.324219 C 13.789062 -11.699219 11.402344 -10.246094 9.988281 -10 C 8.507812 -9.742188 7.601562 -10.554688 7.332031 -12.105469 C 7.179688 -12.980469 7.242188 -13.824219 7.339844 -14.464844 L 9.292969 -28.757812 C 9.855469 -33.089844 11.648438 -33.957031 12.726562 -34.144531 C 14.007812 -34.367188 15.644531 -33.332031 16.042969 -31.042969 C 16.21875 -30.03125 16.171875 -28.703125 15.925781 -26.925781 Z M 15.925781 -26.925781 "/></g></g></g><g fill="rgb(99.21875%, 38.038635%, 33.329773%)" fill-opacity="0.502"><g transform="translate(418.017608, 92.398843)"><g><path d="M 7.316406 -12.585938 L 14.335938 -56.007812 C 14.464844 -56.863281 14.457031 -57.695312 14.339844 -58.371094 C 13.894531 -60.929688 11.175781 -62.191406 9.15625 -61.839844 C 6.597656 -61.394531 5.15625 -59.6875 4.609375 -56.46875 L -2.4375 -14.011719 C -2.707031 -12.367188 -2.730469 -10.90625 -2.484375 -9.492188 C -1.40625 -3.296875 4.3125 -0.75 10.238281 -1.78125 C 16.640625 -2.894531 23.964844 -8.265625 26.242188 -23.101562 C 26.292969 -23.59375 26.277344 -24.078125 26.207031 -24.480469 C 25.832031 -26.636719 23.675781 -27.859375 21.589844 -27.496094 C 19.90625 -27.203125 18.261719 -25.875 17.753906 -23.21875 C 16.128906 -14.605469 12.820312 -10.492188 9.652344 -9.941406 C 8.304688 -9.707031 7.421875 -10.382812 7.246094 -11.394531 C 7.199219 -11.664062 7.253906 -12.160156 7.316406 -12.585938 Z M 7.316406 -12.585938 "/></g></g></g><g fill="rgb(99.21875%, 38.038635%, 33.329773%)" fill-opacity="0.502"><g transform="translate(436.812445, 89.127294)"><g><path d="M 7.316406 -12.585938 L 14.335938 -56.007812 C 14.464844 -56.863281 14.457031 -57.695312 14.339844 -58.371094 C 13.894531 -60.929688 11.175781 -62.191406 9.15625 -61.839844 C 6.597656 -61.394531 5.15625 -59.6875 4.609375 -56.46875 L -2.4375 -14.011719 C -2.707031 -12.367188 -2.730469 -10.90625 -2.484375 -9.492188 C -1.40625 -3.296875 4.3125 -0.75 10.238281 -1.78125 C 16.640625 -2.894531 23.964844 -8.265625 26.242188 -23.101562 C 26.292969 -23.59375 26.277344 -24.078125 26.207031 -24.480469 C 25.832031 -26.636719 23.675781 -27.859375 21.589844 -27.496094 C 19.90625 -27.203125 18.261719 -25.875 17.753906 -23.21875 C 16.128906 -14.605469 12.820312 -10.492188 9.652344 -9.941406 C 8.304688 -9.707031 7.421875 -10.382812 7.246094 -11.394531 C 7.199219 -11.664062 7.253906 -12.160156 7.316406 -12.585938 Z M 7.316406 -12.585938 "/></g></g></g><g fill="rgb(99.21875%, 38.038635%, 33.329773%)" fill-opacity="0.502"><g transform="translate(455.607283, 85.855744)"><g><path d="M 30.78125 -24.929688 C 29.175781 -16.601562 22.65625 -12.203125 16.929688 -11.207031 C 12.011719 -10.351562 8.5 -12.167969 7.960938 -15.265625 C 7.855469 -15.875 7.816406 -16.492188 7.96875 -17.210938 L 8.285156 -18.585938 C 10.453125 -17.714844 13.015625 -17.328125 15.710938 -17.796875 C 21.84375 -18.863281 26.5625 -23.640625 27.328125 -30.019531 C 27.441406 -31.359375 27.421875 -32.675781 27.21875 -33.820312 C 26.105469 -40.21875 20.199219 -44.257812 12.585938 -42.933594 C 6.589844 -41.890625 1.339844 -37.367188 0.152344 -30.21875 L -1.816406 -18.007812 C -2.074219 -16.296875 -2.128906 -14.621094 -1.859375 -13.070312 C -0.464844 -5.054688 7.949219 -1.382812 17.785156 -3.097656 C 27.148438 -4.726562 36.996094 -11.160156 39.203125 -24.800781 C 39.308594 -25.375 39.296875 -25.859375 39.226562 -26.261719 C 38.863281 -28.351562 36.777344 -29.167969 34.753906 -28.816406 C 32.867188 -28.488281 31.023438 -27.125 30.78125 -24.929688 Z M 13.765625 -34.949219 C 15.652344 -35.277344 17.136719 -33.9375 17.476562 -31.984375 C 17.570312 -31.445312 17.597656 -30.894531 17.488281 -30.320312 C 17.203125 -27.980469 15.320312 -26.820312 13.300781 -26.46875 C 12.019531 -26.246094 10.691406 -26.292969 9.65625 -26.667969 L 10.367188 -30.957031 C 10.746094 -33.171875 12.21875 -34.679688 13.765625 -34.949219 Z M 13.765625 -34.949219 "/></g></g></g><g fill="rgb(99.21875%, 38.038635%, 33.329773%)" fill-opacity="0.502"><g transform="translate(487.5383, 80.297627)"><g><path d="M 34.214844 -25.945312 C 32.65625 -17.34375 29.527344 -13.398438 26.359375 -12.847656 C 25.148438 -12.636719 24.367188 -13.125 24.167969 -14.269531 C 24.085938 -14.742188 24.128906 -15.304688 24.210938 -16.015625 L 26.863281 -31.882812 C 27.101562 -33.3125 27.160156 -34.574219 26.960938 -35.71875 C 26.023438 -41.109375 20.738281 -44.351562 15.347656 -43.414062 C 12.71875 -42.957031 10.738281 -41.988281 9.207031 -40.402344 C 8.59375 -41.542969 6.792969 -41.925781 4.972656 -41.609375 C 3.085938 -41.28125 1.421875 -40.085938 1.074219 -38.082031 L -4.699219 -4.664062 C -4.796875 -4.023438 -4.769531 -3.472656 -4.675781 -2.933594 C -4.242188 -0.441406 -2.066406 0.5 0.0898438 0.121094 C 2.449219 -0.289062 4.886719 -2.238281 5.367188 -5.445312 C 6.589844 -12.390625 8.214844 -22.183594 9.378906 -29.050781 C 10.613281 -32.734375 12.6875 -34.761719 14.574219 -35.089844 C 15.789062 -35.300781 16.804688 -34.644531 17.027344 -33.363281 C 17.109375 -32.894531 17.082031 -32.261719 16.984375 -31.621094 L 14.480469 -16.886719 C 14.210938 -15.246094 14.132812 -13.703125 14.378906 -12.289062 C 15.457031 -6.09375 21.152344 -3.683594 26.878906 -4.679688 C 33.75 -5.875 40.285156 -11.800781 42.644531 -25.746094 C 42.753906 -26.320312 42.796875 -26.882812 42.714844 -27.355469 C 42.339844 -29.511719 40.183594 -30.316406 38.164062 -29.964844 C 36.34375 -29.648438 34.5 -28.285156 34.214844 -25.945312 Z M 34.214844 -25.945312 "/></g></g></g><g fill="rgb(99.21875%, 38.038635%, 33.329773%)" fill-opacity="0.502"><g transform="translate(522.904923, 74.141487)"><g><path d="M 24.78125 -10.351562 L 29.539062 -38.042969 C 29.765625 -39.539062 29.769531 -40.71875 29.617188 -41.59375 C 29.085938 -44.625 26.894531 -44.867188 25.960938 -45.054688 C 25.53125 -45.117188 25.046875 -45.101562 24.578125 -45.019531 C 22.554688 -44.667969 20.644531 -43.292969 20.246094 -40.796875 C 17.53125 -42.824219 14.808594 -43.320312 11.238281 -42.699219 C 6.253906 -41.832031 1.492188 -38.085938 0.359375 -31.433594 L -2.53125 -14.136719 C -2.753906 -12.636719 -2.765625 -11.109375 -2.53125 -9.761719 C -1.605469 -4.441406 2.722656 -1.515625 7.476562 -1.300781 C 1.421875 1 -6.171875 4.820312 -7.03125 11.84375 C -7.167969 13.046875 -7.128906 14.082031 -6.953125 15.089844 C -5.8125 21.625 1 24.882812 7.601562 23.734375 C 14.269531 22.570312 19.914062 17.910156 21.316406 9.617188 L 22.925781 0.519531 C 32.03125 -4.1875 41.019531 -11.164062 43.207031 -26.121094 C 43.3125 -26.695312 43.289062 -27.246094 43.207031 -27.71875 C 42.808594 -30.007812 40.820312 -31.050781 38.800781 -30.699219 C 36.980469 -30.382812 35.226562 -28.898438 34.742188 -26.105469 C 33.445312 -18.800781 29.632812 -13.972656 24.78125 -10.351562 Z M 18.261719 -30.664062 L 15.617188 -15.558594 C 14.714844 -12.765625 12.75 -10.480469 10.460938 -10.082031 C 8.84375 -9.800781 7.492188 -10.394531 7.234375 -11.878906 C 7.175781 -12.214844 7.214844 -12.777344 7.269531 -13.273438 L 10.351562 -31.4375 C 10.699219 -33.441406 12.082031 -34.65625 13.566406 -34.914062 C 15.652344 -35.277344 17.742188 -34.042969 18.164062 -31.617188 C 18.210938 -31.351562 18.269531 -31.011719 18.261719 -30.664062 Z M 11.136719 5.765625 L 10.316406 10.628906 C 9.808594 13.285156 7.941406 14.929688 5.921875 15.28125 C 4.371094 15.550781 3.46875 14.734375 3.257812 13.523438 C 3.1875 13.117188 3.226562 12.554688 3.347656 12.050781 C 3.878906 9.527344 6.957031 7.671875 11.136719 5.765625 Z M 11.136719 5.765625 "/></g></g></g><g fill="rgb(99.21875%, 38.038635%, 33.329773%)" fill-opacity="0.502"><g transform="translate(558.877844, 67.879811)"><g><path d="M 30.78125 -24.929688 C 29.175781 -16.601562 22.65625 -12.203125 16.929688 -11.207031 C 12.011719 -10.351562 8.5 -12.167969 7.960938 -15.265625 C 7.855469 -15.875 7.816406 -16.492188 7.96875 -17.210938 L 8.285156 -18.585938 C 10.453125 -17.714844 13.015625 -17.328125 15.710938 -17.796875 C 21.84375 -18.863281 26.5625 -23.640625 27.328125 -30.019531 C 27.441406 -31.359375 27.421875 -32.675781 27.21875 -33.820312 C 26.105469 -40.21875 20.199219 -44.257812 12.585938 -42.933594 C 6.589844 -41.890625 1.339844 -37.367188 0.152344 -30.21875 L -1.816406 -18.007812 C -2.074219 -16.296875 -2.128906 -14.621094 -1.859375 -13.070312 C -0.464844 -5.054688 7.949219 -1.382812 17.785156 -3.097656 C 27.148438 -4.726562 36.996094 -11.160156 39.203125 -24.800781 C 39.308594 -25.375 39.296875 -25.859375 39.226562 -26.261719 C 38.863281 -28.351562 36.777344 -29.167969 34.753906 -28.816406 C 32.867188 -28.488281 31.023438 -27.125 30.78125 -24.929688 Z M 13.765625 -34.949219 C 15.652344 -35.277344 17.136719 -33.9375 17.476562 -31.984375 C 17.570312 -31.445312 17.597656 -30.894531 17.488281 -30.320312 C 17.203125 -27.980469 15.320312 -26.820312 13.300781 -26.46875 C 12.019531 -26.246094 10.691406 -26.292969 9.65625 -26.667969 L 10.367188 -30.957031 C 10.746094 -33.171875 12.21875 -34.679688 13.765625 -34.949219 Z M 13.765625 -34.949219 "/></g></g></g><g fill="rgb(96.469116%, 95.289612%, 89.408875%)" fill-opacity="1"><g transform="translate(310.406698, 107.009829)"><g><path d="M 31.917969 -26.378906 C 30.238281 -17.269531 23.660156 -12.792969 18.273438 -11.855469 C 12.949219 -10.929688 7.144531 -13.183594 6.371094 -17.628906 C 6.195312 -18.636719 6.128906 -19.808594 6.335938 -21.023438 L 10.707031 -46.144531 C 11.550781 -50.875 14.195312 -52.027344 15.8125 -52.308594 C 17.363281 -52.578125 18.605469 -51.824219 18.957031 -49.804688 C 19.121094 -48.859375 19.0625 -47.601562 18.757812 -46.160156 C 18.636719 -45.652344 18.652344 -45.167969 18.734375 -44.699219 C 19.144531 -42.339844 21.773438 -40.785156 24.402344 -41.242188 C 26.757812 -41.652344 29.105469 -43.726562 29.542969 -48.382812 C 29.710938 -50.21875 29.632812 -51.871094 29.386719 -53.285156 C 28.09375 -60.695312 21.484375 -63.984375 13.804688 -62.648438 C 8.886719 -61.792969 1.625 -58.445312 -0.1875 -47.71875 L -4.421875 -22.203125 C -4.796875 -19.988281 -4.804688 -17.625 -4.453125 -15.605469 C -2.914062 -6.78125 6.398438 -1.113281 18.121094 -3.15625 C 27.484375 -4.785156 38.308594 -11.597656 40.1875 -25.527344 C 40.226562 -26.089844 40.210938 -26.574219 40.140625 -26.976562 C 39.730469 -29.335938 37.410156 -30.320312 35.320312 -29.953125 C 33.570312 -29.648438 32.035156 -28.480469 31.917969 -26.378906 Z M 31.917969 -26.378906 "/></g></g></g><g fill="rgb(96.469116%, 95.289612%, 89.408875%)" fill-opacity="1"><g transform="translate(343.348181, 101.275824)"><g><path d="M 35 -26.21875 C 33.441406 -17.621094 30.199219 -13.515625 27.167969 -12.988281 C 25.886719 -12.765625 24.949219 -13.367188 24.773438 -14.375 C 24.726562 -14.644531 24.738281 -14.996094 24.824219 -15.289062 L 27.617188 -31.945312 C 27.863281 -33.308594 27.789062 -34.542969 27.589844 -35.6875 C 26.652344 -41.078125 21.679688 -44.515625 16.222656 -43.566406 C 14.605469 -43.285156 13.375 -42.792969 12.066406 -41.941406 L 14.152344 -55.074219 C 14.300781 -56.210938 14.460938 -57.28125 14.308594 -58.15625 C 13.816406 -60.984375 11.3125 -62.214844 9.089844 -61.828125 C 6.460938 -61.371094 5.113281 -59.539062 4.457031 -55.746094 L -3.738281 -7.121094 C -3.910156 -6.121094 -3.894531 -5.222656 -3.753906 -4.414062 C -3.226562 -1.382812 -0.671875 0.117188 1.617188 -0.28125 C 3.570312 -0.621094 5.378906 -2.1875 5.898438 -5.191406 L 10.039062 -29.648438 C 11.007812 -32.457031 12.957031 -34.808594 15.046875 -35.171875 C 16.394531 -35.40625 17.511719 -34.558594 17.726562 -33.347656 C 17.796875 -32.941406 17.796875 -32.527344 17.667969 -32.085938 L 15.199219 -17.152344 C 14.941406 -15.441406 14.929688 -13.914062 15.164062 -12.566406 C 16.265625 -6.234375 22.230469 -3.871094 27.957031 -4.867188 C 34.355469 -5.980469 41.007812 -11.234375 43.417969 -26.089844 C 43.472656 -26.585938 43.46875 -27 43.398438 -27.40625 C 43.035156 -29.492188 40.78125 -30.488281 38.625 -30.113281 C 36.941406 -29.820312 35.285156 -28.5625 35 -26.21875 Z M 35 -26.21875 "/></g></g></g><g fill="rgb(96.469116%, 95.289612%, 89.408875%)" fill-opacity="1"><g transform="translate(379.455819, 94.990698)"><g><path d="M 38.277344 -30.121094 C 36.390625 -29.792969 34.5 -28.285156 34.136719 -25.585938 C 32.953125 -16.839844 29.1875 -13.339844 26.15625 -12.8125 C 25.011719 -12.613281 24.234375 -13.101562 24.046875 -14.179688 C 23.953125 -14.71875 23.96875 -15.417969 24.042969 -16.191406 L 27.789062 -39.332031 C 27.917969 -40.1875 27.921875 -40.953125 27.804688 -41.625 C 27.289062 -44.589844 24.59375 -45.71875 22.101562 -45.285156 C 20.214844 -44.957031 18.414062 -43.738281 17.628906 -41.867188 C 16.0625 -42.496094 13.257812 -43.050781 9.824219 -42.453125 C 5.378906 -41.679688 0.949219 -38.410156 0.03125 -32.90625 L -3.144531 -13.679688 C -3.339844 -12.398438 -3.394531 -11.140625 -3.183594 -9.925781 C -2.210938 -4.335938 3.097656 -0.539062 9.027344 -1.570312 C 12.195312 -2.121094 15.179688 -4.101562 17.285156 -6.757812 C 19.980469 -4.035156 24.859375 -4.328125 26.878906 -4.679688 C 32.472656 -5.652344 39.457031 -9.78125 41.867188 -21.445312 C 42.355469 -24.238281 42.800781 -26.050781 42.589844 -27.265625 C 42.191406 -29.554688 40.230469 -30.460938 38.277344 -30.121094 Z M 15.925781 -26.925781 L 14.441406 -16.324219 C 13.789062 -11.699219 11.402344 -10.246094 9.988281 -10 C 8.507812 -9.742188 7.601562 -10.554688 7.332031 -12.105469 C 7.179688 -12.980469 7.242188 -13.824219 7.339844 -14.464844 L 9.292969 -28.757812 C 9.855469 -33.089844 11.648438 -33.957031 12.726562 -34.144531 C 14.007812 -34.367188 15.644531 -33.332031 16.042969 -31.042969 C 16.21875 -30.03125 16.171875 -28.703125 15.925781 -26.925781 Z M 15.925781 -26.925781 "/></g></g></g><g fill="rgb(96.469116%, 95.289612%, 89.408875%)" fill-opacity="1"><g transform="translate(414.822448, 88.834557)"><g><path d="M 7.316406 -12.585938 L 14.335938 -56.007812 C 14.464844 -56.863281 14.457031 -57.695312 14.339844 -58.371094 C 13.894531 -60.929688 11.175781 -62.191406 9.15625 -61.839844 C 6.597656 -61.394531 5.15625 -59.6875 4.609375 -56.46875 L -2.4375 -14.011719 C -2.707031 -12.367188 -2.730469 -10.90625 -2.484375 -9.492188 C -1.40625 -3.296875 4.3125 -0.75 10.238281 -1.78125 C 16.640625 -2.894531 23.964844 -8.265625 26.242188 -23.101562 C 26.292969 -23.59375 26.277344 -24.078125 26.207031 -24.480469 C 25.832031 -26.636719 23.675781 -27.859375 21.589844 -27.496094 C 19.90625 -27.203125 18.261719 -25.875 17.753906 -23.21875 C 16.128906 -14.605469 12.820312 -10.492188 9.652344 -9.941406 C 8.304688 -9.707031 7.421875 -10.382812 7.246094 -11.394531 C 7.199219 -11.664062 7.253906 -12.160156 7.316406 -12.585938 Z M 7.316406 -12.585938 "/></g></g></g><g fill="rgb(96.469116%, 95.289612%, 89.408875%)" fill-opacity="1"><g transform="translate(433.617285, 85.563008)"><g><path d="M 7.316406 -12.585938 L 14.335938 -56.007812 C 14.464844 -56.863281 14.457031 -57.695312 14.339844 -58.371094 C 13.894531 -60.929688 11.175781 -62.191406 9.15625 -61.839844 C 6.597656 -61.394531 5.15625 -59.6875 4.609375 -56.46875 L -2.4375 -14.011719 C -2.707031 -12.367188 -2.730469 -10.90625 -2.484375 -9.492188 C -1.40625 -3.296875 4.3125 -0.75 10.238281 -1.78125 C 16.640625 -2.894531 23.964844 -8.265625 26.242188 -23.101562 C 26.292969 -23.59375 26.277344 -24.078125 26.207031 -24.480469 C 25.832031 -26.636719 23.675781 -27.859375 21.589844 -27.496094 C 19.90625 -27.203125 18.261719 -25.875 17.753906 -23.21875 C 16.128906 -14.605469 12.820312 -10.492188 9.652344 -9.941406 C 8.304688 -9.707031 7.421875 -10.382812 7.246094 -11.394531 C 7.199219 -11.664062 7.253906 -12.160156 7.316406 -12.585938 Z M 7.316406 -12.585938 "/></g></g></g><g fill="rgb(96.469116%, 95.289612%, 89.408875%)" fill-opacity="1"><g transform="translate(452.412123, 82.291458)"><g><path d="M 30.78125 -24.929688 C 29.175781 -16.601562 22.65625 -12.203125 16.929688 -11.207031 C 12.011719 -10.351562 8.5 -12.167969 7.960938 -15.265625 C 7.855469 -15.875 7.816406 -16.492188 7.96875 -17.210938 L 8.285156 -18.585938 C 10.453125 -17.714844 13.015625 -17.328125 15.710938 -17.796875 C 21.84375 -18.863281 26.5625 -23.640625 27.328125 -30.019531 C 27.441406 -31.359375 27.421875 -32.675781 27.21875 -33.820312 C 26.105469 -40.21875 20.199219 -44.257812 12.585938 -42.933594 C 6.589844 -41.890625 1.339844 -37.367188 0.152344 -30.21875 L -1.816406 -18.007812 C -2.074219 -16.296875 -2.128906 -14.621094 -1.859375 -13.070312 C -0.464844 -5.054688 7.949219 -1.382812 17.785156 -3.097656 C 27.148438 -4.726562 36.996094 -11.160156 39.203125 -24.800781 C 39.308594 -25.375 39.296875 -25.859375 39.226562 -26.261719 C 38.863281 -28.351562 36.777344 -29.167969 34.753906 -28.816406 C 32.867188 -28.488281 31.023438 -27.125 30.78125 -24.929688 Z M 13.765625 -34.949219 C 15.652344 -35.277344 17.136719 -33.9375 17.476562 -31.984375 C 17.570312 -31.445312 17.597656 -30.894531 17.488281 -30.320312 C 17.203125 -27.980469 15.320312 -26.820312 13.300781 -26.46875 C 12.019531 -26.246094 10.691406 -26.292969 9.65625 -26.667969 L 10.367188 -30.957031 C 10.746094 -33.171875 12.21875 -34.679688 13.765625 -34.949219 Z M 13.765625 -34.949219 "/></g></g></g><g fill="rgb(96.469116%, 95.289612%, 89.408875%)" fill-opacity="1"><g transform="translate(484.343139, 76.733341)"><g><path d="M 34.214844 -25.945312 C 32.65625 -17.34375 29.527344 -13.398438 26.359375 -12.847656 C 25.148438 -12.636719 24.367188 -13.125 24.167969 -14.269531 C 24.085938 -14.742188 24.128906 -15.304688 24.210938 -16.015625 L 26.863281 -31.882812 C 27.101562 -33.3125 27.160156 -34.574219 26.960938 -35.71875 C 26.023438 -41.109375 20.738281 -44.351562 15.347656 -43.414062 C 12.71875 -42.957031 10.738281 -41.988281 9.207031 -40.402344 C 8.59375 -41.542969 6.792969 -41.925781 4.972656 -41.609375 C 3.085938 -41.28125 1.421875 -40.085938 1.074219 -38.082031 L -4.699219 -4.664062 C -4.796875 -4.023438 -4.769531 -3.472656 -4.675781 -2.933594 C -4.242188 -0.441406 -2.066406 0.5 0.0898438 0.121094 C 2.449219 -0.289062 4.886719 -2.238281 5.367188 -5.445312 C 6.589844 -12.390625 8.214844 -22.183594 9.378906 -29.050781 C 10.613281 -32.734375 12.6875 -34.761719 14.574219 -35.089844 C 15.789062 -35.300781 16.804688 -34.644531 17.027344 -33.363281 C 17.109375 -32.894531 17.082031 -32.261719 16.984375 -31.621094 L 14.480469 -16.886719 C 14.210938 -15.246094 14.132812 -13.703125 14.378906 -12.289062 C 15.457031 -6.09375 21.152344 -3.683594 26.878906 -4.679688 C 33.75 -5.875 40.285156 -11.800781 42.644531 -25.746094 C 42.753906 -26.320312 42.796875 -26.882812 42.714844 -27.355469 C 42.339844 -29.511719 40.183594 -30.316406 38.164062 -29.964844 C 36.34375 -29.648438 34.5 -28.285156 34.214844 -25.945312 Z M 34.214844 -25.945312 "/></g></g></g><g fill="rgb(96.469116%, 95.289612%, 89.408875%)" fill-opacity="1"><g transform="translate(519.709763, 70.577201)"><g><path d="M 24.78125 -10.351562 L 29.539062 -38.042969 C 29.765625 -39.539062 29.769531 -40.71875 29.617188 -41.59375 C 29.085938 -44.625 26.894531 -44.867188 25.960938 -45.054688 C 25.53125 -45.117188 25.046875 -45.101562 24.578125 -45.019531 C 22.554688 -44.667969 20.644531 -43.292969 20.246094 -40.796875 C 17.53125 -42.824219 14.808594 -43.320312 11.238281 -42.699219 C 6.253906 -41.832031 1.492188 -38.085938 0.359375 -31.433594 L -2.53125 -14.136719 C -2.753906 -12.636719 -2.765625 -11.109375 -2.53125 -9.761719 C -1.605469 -4.441406 2.722656 -1.515625 7.476562 -1.300781 C 1.421875 1 -6.171875 4.820312 -7.03125 11.84375 C -7.167969 13.046875 -7.128906 14.082031 -6.953125 15.089844 C -5.8125 21.625 1 24.882812 7.601562 23.734375 C 14.269531 22.570312 19.914062 17.910156 21.316406 9.617188 L 22.925781 0.519531 C 32.03125 -4.1875 41.019531 -11.164062 43.207031 -26.121094 C 43.3125 -26.695312 43.289062 -27.246094 43.207031 -27.71875 C 42.808594 -30.007812 40.820312 -31.050781 38.800781 -30.699219 C 36.980469 -30.382812 35.226562 -28.898438 34.742188 -26.105469 C 33.445312 -18.800781 29.632812 -13.972656 24.78125 -10.351562 Z M 18.261719 -30.664062 L 15.617188 -15.558594 C 14.714844 -12.765625 12.75 -10.480469 10.460938 -10.082031 C 8.84375 -9.800781 7.492188 -10.394531 7.234375 -11.878906 C 7.175781 -12.214844 7.214844 -12.777344 7.269531 -13.273438 L 10.351562 -31.4375 C 10.699219 -33.441406 12.082031 -34.65625 13.566406 -34.914062 C 15.652344 -35.277344 17.742188 -34.042969 18.164062 -31.617188 C 18.210938 -31.351562 18.269531 -31.011719 18.261719 -30.664062 Z M 11.136719 5.765625 L 10.316406 10.628906 C 9.808594 13.285156 7.941406 14.929688 5.921875 15.28125 C 4.371094 15.550781 3.46875 14.734375 3.257812 13.523438 C 3.1875 13.117188 3.226562 12.554688 3.347656 12.050781 C 3.878906 9.527344 6.957031 7.671875 11.136719 5.765625 Z M 11.136719 5.765625 "/></g></g></g><g fill="rgb(96.469116%, 95.289612%, 89.408875%)" fill-opacity="1"><g transform="translate(555.682684, 64.315525)"><g><path d="M 30.78125 -24.929688 C 29.175781 -16.601562 22.65625 -12.203125 16.929688 -11.207031 C 12.011719 -10.351562 8.5 -12.167969 7.960938 -15.265625 C 7.855469 -15.875 7.816406 -16.492188 7.96875 -17.210938 L 8.285156 -18.585938 C 10.453125 -17.714844 13.015625 -17.328125 15.710938 -17.796875 C 21.84375 -18.863281 26.5625 -23.640625 27.328125 -30.019531 C 27.441406 -31.359375 27.421875 -32.675781 27.21875 -33.820312 C 26.105469 -40.21875 20.199219 -44.257812 12.585938 -42.933594 C 6.589844 -41.890625 1.339844 -37.367188 0.152344 -30.21875 L -1.816406 -18.007812 C -2.074219 -16.296875 -2.128906 -14.621094 -1.859375 -13.070312 C -0.464844 -5.054688 7.949219 -1.382812 17.785156 -3.097656 C 27.148438 -4.726562 36.996094 -11.160156 39.203125 -24.800781 C 39.308594 -25.375 39.296875 -25.859375 39.226562 -26.261719 C 38.863281 -28.351562 36.777344 -29.167969 34.753906 -28.816406 C 32.867188 -28.488281 31.023438 -27.125 30.78125 -24.929688 Z M 13.765625 -34.949219 C 15.652344 -35.277344 17.136719 -33.9375 17.476562 -31.984375 C 17.570312 -31.445312 17.597656 -30.894531 17.488281 -30.320312 C 17.203125 -27.980469 15.320312 -26.820312 13.300781 -26.46875 C 12.019531 -26.246094 10.691406 -26.292969 9.65625 -26.667969 L 10.367188 -30.957031 C 10.746094 -33.171875 12.21875 -34.679688 13.765625 -34.949219 Z M 13.765625 -34.949219 "/></g></g></g><g fill="rgb(99.21875%, 38.038635%, 33.329773%)" fill-opacity="0.302"><g transform="translate(152.496843, 77.54918)"><g><path d="M 26.851562 -19.824219 C 25.613281 -19.636719 24.425781 -18.800781 24.234375 -17.269531 C 23 -11.453125 20.875 -8.738281 18.8125 -8.425781 C 17.894531 -8.285156 17.292969 -8.851562 17.179688 -9.585938 C 17.140625 -9.863281 17.144531 -10.144531 17.246094 -10.722656 L 22.523438 -39.160156 C 22.621094 -39.738281 22.734375 -40.550781 22.65625 -41.054688 C 22.359375 -43.027344 20.59375 -43.839844 18.988281 -43.597656 C 17.566406 -43.382812 16.394531 -42.128906 15.929688 -39.617188 L 13.542969 -27.152344 C 11.9375 -28.457031 9.789062 -29.023438 7.632812 -28.699219 C 4.648438 -28.246094 1.6875 -26.109375 0.976562 -22.4375 L -1.511719 -9.390625 C -1.703125 -8.472656 -1.699219 -7.53125 -1.574219 -6.707031 C -0.964844 -2.667969 2.707031 -0.410156 6.652344 -1.003906 C 8.808594 -1.332031 11.082031 -2.425781 12.648438 -4.492188 C 14.304688 -3.144531 16.652344 -2.515625 18.949219 -2.863281 C 23.488281 -3.546875 28.226562 -7.59375 29.945312 -17.050781 C 29.988281 -17.386719 30.03125 -17.722656 29.988281 -17.996094 C 29.773438 -19.417969 28.273438 -20.039062 26.851562 -19.824219 Z M 6.59375 -8.222656 C 5.6875 -8.320312 5.355469 -8.972656 5.242188 -9.707031 C 5.152344 -10.304688 5.207031 -10.875 5.285156 -11.308594 L 6.742188 -19.367188 C 7.25 -22.210938 8.417969 -22.855469 9.152344 -22.96875 C 10.023438 -23.101562 11.121094 -22.375 11.355469 -20.8125 C 11.460938 -20.125 11.453125 -19.234375 11.214844 -18.023438 L 10.128906 -12.464844 C 9.265625 -8.859375 7.492188 -8.171875 6.59375 -8.222656 Z M 6.59375 -8.222656 "/></g></g></g><g fill="rgb(99.21875%, 38.038635%, 33.329773%)" fill-opacity="0.302"><g transform="translate(177.132559, 73.828055)"><g><path d="M 17.957031 -12.519531 C 17.964844 -12.472656 17.855469 -13.207031 17.539062 -14.050781 C 17.824219 -14.328125 18.089844 -14.746094 18.304688 -15.199219 C 18.910156 -16.464844 19.683594 -20.664062 19.40625 -22.5 C 18.699219 -27.179688 14.375 -29.714844 9.421875 -28.96875 C 5.109375 -28.316406 1.386719 -25.3125 0.535156 -21.007812 L -1.386719 -11.050781 C -1.628906 -9.84375 -1.636719 -8.667969 -1.484375 -7.660156 C -0.757812 -2.84375 3.808594 -0.574219 8.488281 -1.28125 C 12.066406 -1.824219 15.148438 -3.460938 16.578125 -7.054688 C 17.4375 -6.949219 18.421875 -6.960938 19.386719 -7.105469 C 24.800781 -7.921875 28.484375 -12.421875 29.316406 -17.472656 C 29.378906 -18 29.402344 -18.472656 29.339844 -18.882812 C 29.082031 -20.582031 27.699219 -21.359375 26.367188 -21.15625 C 25.128906 -20.96875 23.953125 -20.042969 23.707031 -18.269531 C 23.125 -15.269531 21.3125 -12.980469 18.605469 -12.570312 C 18.425781 -12.542969 18.148438 -12.5 17.957031 -12.519531 Z M 12.625 -18.941406 C 12.550781 -18.507812 12.46875 -18.117188 12.476562 -17.746094 C 9.910156 -17.640625 7.976562 -15.234375 8.390625 -12.484375 C 8.671875 -10.929688 9.578125 -10.222656 10.558594 -9.621094 C 10.207031 -7.921875 8.992188 -6.941406 7.570312 -6.726562 C 5.78125 -6.457031 5.15625 -7.488281 4.992188 -8.589844 C 4.859375 -9.460938 4.964844 -10.324219 5.078125 -10.808594 L 6.929688 -20.613281 C 7.25 -22.210938 8.722656 -23.324219 10.144531 -23.539062 C 11.570312 -23.753906 12.632812 -22.929688 12.792969 -21.875 C 12.914062 -21.050781 12.800781 -19.953125 12.625 -18.941406 Z M 12.625 -18.941406 "/></g></g></g><g fill="rgb(99.21875%, 38.038635%, 33.329773%)" fill-opacity="0.302"><g transform="translate(201.080126, 70.210873)"><g><path d="M 23.605469 -17.078125 C 22.417969 -11.269531 20.234375 -8.640625 18.078125 -8.316406 C 17.25 -8.191406 16.730469 -8.535156 16.613281 -9.3125 C 16.5625 -9.632812 16.601562 -10.015625 16.667969 -10.496094 L 18.707031 -21.21875 C 18.890625 -22.1875 18.949219 -23.039062 18.832031 -23.820312 C 18.277344 -27.488281 14.742188 -29.773438 11.070312 -29.21875 C 9.28125 -28.945312 7.921875 -28.320312 6.863281 -27.265625 C 6.460938 -28.050781 5.246094 -28.335938 4.007812 -28.148438 C 2.722656 -27.957031 1.574219 -27.171875 1.308594 -25.820312 L -3.117188 -3.234375 C -3.191406 -2.800781 -3.183594 -2.429688 -3.125 -2.0625 C -2.871094 -0.363281 -1.410156 0.304688 0.0585938 0.0859375 C 1.664062 -0.15625 3.347656 -1.445312 3.722656 -3.613281 C 4.65625 -8.304688 5.910156 -14.921875 6.804688 -19.5625 C 7.699219 -22.042969 9.136719 -23.386719 10.421875 -23.582031 C 11.246094 -23.707031 11.925781 -23.246094 12.058594 -22.375 C 12.105469 -22.054688 12.078125 -21.625 12.003906 -21.191406 L 10.082031 -11.234375 C 9.875 -10.125 9.796875 -9.082031 9.941406 -8.117188 C 10.578125 -3.898438 14.40625 -2.175781 18.304688 -2.765625 C 22.984375 -3.472656 27.507812 -7.394531 29.320312 -16.816406 C 29.402344 -17.203125 29.441406 -17.585938 29.390625 -17.90625 C 29.171875 -19.375 27.722656 -19.953125 26.34375 -19.746094 C 25.105469 -19.558594 23.835938 -18.664062 23.605469 -17.078125 Z M 23.605469 -17.078125 "/></g></g></g><g fill="rgb(99.21875%, 38.038635%, 33.329773%)" fill-opacity="0.302"><g transform="translate(225.165322, 66.572903)"><g><path d="M 26.421875 -19.851562 C 25.140625 -19.65625 23.835938 -18.664062 23.546875 -16.835938 C 22.609375 -10.921875 20.003906 -8.605469 17.941406 -8.292969 C 17.160156 -8.175781 16.636719 -8.519531 16.527344 -9.253906 C 16.472656 -9.621094 16.496094 -10.09375 16.554688 -10.617188 L 19.449219 -26.257812 C 19.550781 -26.835938 19.566406 -27.355469 19.496094 -27.816406 C 19.191406 -29.832031 17.378906 -30.640625 15.683594 -30.382812 C 14.398438 -30.1875 13.15625 -29.390625 12.597656 -28.132812 C 11.542969 -28.585938 9.648438 -29.003906 7.308594 -28.648438 C 4.28125 -28.191406 1.226562 -26.042969 0.523438 -22.320312 L -1.925781 -9.328125 C -2.074219 -8.460938 -2.132812 -7.609375 -2.011719 -6.78125 C -1.433594 -2.972656 2.109375 -0.320312 6.148438 -0.929688 C 8.304688 -1.253906 10.359375 -2.550781 11.828125 -4.320312 C 13.617188 -2.433594 16.929688 -2.558594 18.304688 -2.765625 C 22.113281 -3.339844 26.914062 -6.035156 28.726562 -13.910156 C 29.101562 -15.796875 29.433594 -17.019531 29.308594 -17.847656 C 29.070312 -19.40625 27.753906 -20.050781 26.421875 -19.851562 Z M 11.214844 -18.023438 L 10.042969 -10.855469 C 9.53125 -7.726562 7.890625 -6.777344 6.929688 -6.628906 C 5.917969 -6.476562 5.316406 -7.042969 5.160156 -8.097656 C 5.066406 -8.695312 5.121094 -9.265625 5.199219 -9.699219 L 6.742188 -19.367188 C 7.191406 -22.296875 8.417969 -22.855469 9.152344 -22.96875 C 10.023438 -23.101562 11.121094 -22.375 11.355469 -20.8125 C 11.460938 -20.125 11.40625 -19.226562 11.214844 -18.023438 Z M 11.214844 -18.023438 "/></g></g></g><g fill="rgb(99.21875%, 38.038635%, 33.329773%)" fill-opacity="0.302"><g transform="translate(249.250518, 62.934932)"><g><path d="M 22.707031 -18.351562 C 22.148438 -15.546875 20.332031 -13.582031 17.898438 -13.214844 L 17.671875 -13.179688 L 18.890625 -19.089844 C 19.160156 -20.398438 19.203125 -21.671875 19.039062 -22.773438 C 18.359375 -27.269531 14.511719 -29.738281 10.476562 -29.128906 C 9.695312 -29.007812 9.019531 -28.8125 8.320312 -28.472656 L 10.007812 -37.503906 C 10.101562 -38.128906 10.164062 -38.652344 10.085938 -39.15625 C 9.796875 -41.085938 8.070312 -41.949219 6.464844 -41.707031 C 5.042969 -41.492188 3.796875 -40.414062 3.4375 -38.433594 C 1.589844 -28.300781 -0.0429688 -20.171875 -1.691406 -11.195312 C -1.929688 -9.984375 -1.957031 -8.621094 -1.800781 -7.566406 C -1.042969 -2.5625 3.488281 -0.527344 8.074219 -1.21875 C 11.421875 -1.726562 14.945312 -3.570312 16.363281 -7.539062 C 16.929688 -7.53125 17.53125 -7.574219 18.128906 -7.664062 C 22.992188 -8.398438 27.464844 -12.03125 28.324219 -17.511719 C 28.375 -17.800781 28.386719 -18.035156 28.351562 -18.265625 C 28.125 -19.78125 26.371094 -20.5 24.859375 -20.273438 C 23.847656 -20.121094 22.910156 -19.507812 22.707031 -18.351562 Z M 10.09375 -9.597656 L 10.058594 -9.214844 C 9.734375 -7.617188 8.441406 -6.859375 7.25 -6.679688 C 5.917969 -6.476562 4.9375 -7.082031 4.742188 -8.363281 C 4.679688 -8.777344 4.65625 -9.242188 4.765625 -9.777344 C 5.484375 -13.402344 6.054688 -16.445312 6.722656 -20.113281 C 7.382812 -21.949219 8.679688 -23.320312 10.007812 -23.519531 C 11.203125 -23.699219 12.144531 -23.042969 12.320312 -21.898438 C 12.367188 -21.578125 12.375 -21.203125 12.292969 -20.816406 L 11.746094 -17.917969 C 11.457031 -17.964844 11.792969 -17.921875 11.472656 -17.875 C 9.222656 -17.535156 7.710938 -15.429688 8.066406 -13.089844 C 8.265625 -11.757812 8.964844 -10.550781 10.09375 -9.597656 Z M 10.09375 -9.597656 "/></g></g></g><g fill="rgb(99.21875%, 38.038635%, 33.329773%)" fill-opacity="0.302"><g transform="translate(272.142929, 59.477127)"><g><path d="M 7.636719 -33.015625 C 9.699219 -33.328125 11.140625 -35.28125 10.824219 -37.390625 C 10.511719 -39.457031 8.5625 -40.851562 6.5 -40.539062 C 4.433594 -40.226562 2.988281 -38.320312 3.296875 -36.253906 C 3.617188 -34.144531 5.570312 -32.703125 7.636719 -33.015625 Z M 4.976562 -8.683594 L 7.847656 -23.851562 C 7.941406 -24.472656 8.074219 -25.152344 8.003906 -25.609375 C 7.699219 -27.628906 6.027344 -28.453125 4.464844 -28.21875 C 3.042969 -28.003906 1.683594 -26.765625 1.273438 -24.5 C 0.457031 -19.964844 -0.644531 -14.214844 -1.46875 -9.726562 C -1.605469 -8.765625 -1.785156 -7.472656 -1.667969 -6.691406 C -1.015625 -2.378906 2.9375 -0.445312 7.15625 -1.082031 C 11.652344 -1.761719 16.191406 -5.261719 17.96875 -15.242188 C 18.019531 -15.53125 18.023438 -15.8125 17.980469 -16.089844 C 17.765625 -17.511719 16.257812 -18.175781 14.882812 -17.96875 C 13.644531 -17.78125 12.503906 -16.953125 12.167969 -15.445312 C 10.910156 -9.15625 8.765625 -6.90625 6.929688 -6.628906 C 5.875 -6.472656 5.082031 -7.054688 4.949219 -7.925781 C 4.914062 -8.15625 4.925781 -8.394531 4.976562 -8.683594 Z M 4.976562 -8.683594 "/></g></g></g><g fill="rgb(99.21875%, 38.038635%, 33.329773%)" fill-opacity="0.302"><g transform="translate(284.804859, 57.564594)"><g><path d="M 14.425781 -15.410156 C 13.351562 -10.085938 10.828125 -7.21875 8.167969 -6.816406 C 6.515625 -6.566406 5.355469 -7.425781 5.167969 -8.664062 C 5.117188 -8.984375 5.15625 -9.367188 5.199219 -9.699219 L 7.761719 -23.179688 L 10.742188 -23.628906 C 13.082031 -23.984375 14.070312 -25.824219 13.84375 -27.335938 C 13.664062 -28.53125 12.722656 -29.464844 10.980469 -29.203125 L 8.914062 -28.890625 L 10.636719 -38.300781 C 10.679688 -38.636719 10.6875 -38.917969 10.644531 -39.195312 C 10.386719 -40.890625 8.988281 -42.089844 6.96875 -41.785156 C 5.453125 -41.554688 4.328125 -40.304688 4.019531 -38.617188 L 1.894531 -27.832031 L -0.03125 -27.539062 C -2.507812 -27.167969 -3.328125 -25.445312 -3.105469 -23.980469 C -2.910156 -22.695312 -1.964844 -21.710938 -0.726562 -21.898438 L 0.789062 -22.125 L -1.394531 -10.488281 L -1.402344 -10.535156 C -1.605469 -9.378906 -1.636719 -8.339844 -1.488281 -7.375 C -0.78125 -2.695312 3.808594 -0.574219 8.535156 -1.289062 C 14.40625 -2.175781 18.65625 -7.277344 20.136719 -15.195312 C 20.179688 -15.53125 20.222656 -15.863281 20.179688 -16.140625 C 19.972656 -17.515625 18.511719 -18.1875 17.085938 -17.972656 C 15.941406 -17.800781 14.753906 -16.960938 14.425781 -15.410156 Z M 14.425781 -15.410156 "/></g></g></g><g fill="rgb(99.21875%, 38.038635%, 33.329773%)" fill-opacity="0.502"><g transform="translate(150.383558, 75.082644)"><g><path d="M 26.851562 -19.824219 C 25.613281 -19.636719 24.425781 -18.800781 24.234375 -17.269531 C 23 -11.453125 20.875 -8.738281 18.8125 -8.425781 C 17.894531 -8.285156 17.292969 -8.851562 17.179688 -9.585938 C 17.140625 -9.863281 17.144531 -10.144531 17.246094 -10.722656 L 22.523438 -39.160156 C 22.621094 -39.738281 22.734375 -40.550781 22.65625 -41.054688 C 22.359375 -43.027344 20.59375 -43.839844 18.988281 -43.597656 C 17.566406 -43.382812 16.394531 -42.128906 15.929688 -39.617188 L 13.542969 -27.152344 C 11.9375 -28.457031 9.789062 -29.023438 7.632812 -28.699219 C 4.648438 -28.246094 1.6875 -26.109375 0.976562 -22.4375 L -1.511719 -9.390625 C -1.703125 -8.472656 -1.699219 -7.53125 -1.574219 -6.707031 C -0.964844 -2.667969 2.707031 -0.410156 6.652344 -1.003906 C 8.808594 -1.332031 11.082031 -2.425781 12.648438 -4.492188 C 14.304688 -3.144531 16.652344 -2.515625 18.949219 -2.863281 C 23.488281 -3.546875 28.226562 -7.59375 29.945312 -17.050781 C 29.988281 -17.386719 30.03125 -17.722656 29.988281 -17.996094 C 29.773438 -19.417969 28.273438 -20.039062 26.851562 -19.824219 Z M 6.59375 -8.222656 C 5.6875 -8.320312 5.355469 -8.972656 5.242188 -9.707031 C 5.152344 -10.304688 5.207031 -10.875 5.285156 -11.308594 L 6.742188 -19.367188 C 7.25 -22.210938 8.417969 -22.855469 9.152344 -22.96875 C 10.023438 -23.101562 11.121094 -22.375 11.355469 -20.8125 C 11.460938 -20.125 11.453125 -19.234375 11.214844 -18.023438 L 10.128906 -12.464844 C 9.265625 -8.859375 7.492188 -8.171875 6.59375 -8.222656 Z M 6.59375 -8.222656 "/></g></g></g><g fill="rgb(99.21875%, 38.038635%, 33.329773%)" fill-opacity="0.502"><g transform="translate(175.019275, 71.36152)"><g><path d="M 17.957031 -12.519531 C 17.964844 -12.472656 17.855469 -13.207031 17.539062 -14.050781 C 17.824219 -14.328125 18.089844 -14.746094 18.304688 -15.199219 C 18.910156 -16.464844 19.683594 -20.664062 19.40625 -22.5 C 18.699219 -27.179688 14.375 -29.714844 9.421875 -28.96875 C 5.109375 -28.316406 1.386719 -25.3125 0.535156 -21.007812 L -1.386719 -11.050781 C -1.628906 -9.84375 -1.636719 -8.667969 -1.484375 -7.660156 C -0.757812 -2.84375 3.808594 -0.574219 8.488281 -1.28125 C 12.066406 -1.824219 15.148438 -3.460938 16.578125 -7.054688 C 17.4375 -6.949219 18.421875 -6.960938 19.386719 -7.105469 C 24.800781 -7.921875 28.484375 -12.421875 29.316406 -17.472656 C 29.378906 -18 29.402344 -18.472656 29.339844 -18.882812 C 29.082031 -20.582031 27.699219 -21.359375 26.367188 -21.15625 C 25.128906 -20.96875 23.953125 -20.042969 23.707031 -18.269531 C 23.125 -15.269531 21.3125 -12.980469 18.605469 -12.570312 C 18.425781 -12.542969 18.148438 -12.5 17.957031 -12.519531 Z M 12.625 -18.941406 C 12.550781 -18.507812 12.46875 -18.117188 12.476562 -17.746094 C 9.910156 -17.640625 7.976562 -15.234375 8.390625 -12.484375 C 8.671875 -10.929688 9.578125 -10.222656 10.558594 -9.621094 C 10.207031 -7.921875 8.992188 -6.941406 7.570312 -6.726562 C 5.78125 -6.457031 5.15625 -7.488281 4.992188 -8.589844 C 4.859375 -9.460938 4.964844 -10.324219 5.078125 -10.808594 L 6.929688 -20.613281 C 7.25 -22.210938 8.722656 -23.324219 10.144531 -23.539062 C 11.570312 -23.753906 12.632812 -22.929688 12.792969 -21.875 C 12.914062 -21.050781 12.800781 -19.953125 12.625 -18.941406 Z M 12.625 -18.941406 "/></g></g></g><g fill="rgb(99.21875%, 38.038635%, 33.329773%)" fill-opacity="0.502"><g transform="translate(198.966841, 67.744338)"><g><path d="M 23.605469 -17.078125 C 22.417969 -11.269531 20.234375 -8.640625 18.078125 -8.316406 C 17.25 -8.191406 16.730469 -8.535156 16.613281 -9.3125 C 16.5625 -9.632812 16.601562 -10.015625 16.667969 -10.496094 L 18.707031 -21.21875 C 18.890625 -22.1875 18.949219 -23.039062 18.832031 -23.820312 C 18.277344 -27.488281 14.742188 -29.773438 11.070312 -29.21875 C 9.28125 -28.945312 7.921875 -28.320312 6.863281 -27.265625 C 6.460938 -28.050781 5.246094 -28.335938 4.007812 -28.148438 C 2.722656 -27.957031 1.574219 -27.171875 1.308594 -25.820312 L -3.117188 -3.234375 C -3.191406 -2.800781 -3.183594 -2.429688 -3.125 -2.0625 C -2.871094 -0.363281 -1.410156 0.304688 0.0585938 0.0859375 C 1.664062 -0.15625 3.347656 -1.445312 3.722656 -3.613281 C 4.65625 -8.304688 5.910156 -14.921875 6.804688 -19.5625 C 7.699219 -22.042969 9.136719 -23.386719 10.421875 -23.582031 C 11.246094 -23.707031 11.925781 -23.246094 12.058594 -22.375 C 12.105469 -22.054688 12.078125 -21.625 12.003906 -21.191406 L 10.082031 -11.234375 C 9.875 -10.125 9.796875 -9.082031 9.941406 -8.117188 C 10.578125 -3.898438 14.40625 -2.175781 18.304688 -2.765625 C 22.984375 -3.472656 27.507812 -7.394531 29.320312 -16.816406 C 29.402344 -17.203125 29.441406 -17.585938 29.390625 -17.90625 C 29.171875 -19.375 27.722656 -19.953125 26.34375 -19.746094 C 25.105469 -19.558594 23.835938 -18.664062 23.605469 -17.078125 Z M 23.605469 -17.078125 "/></g></g></g><g fill="rgb(99.21875%, 38.038635%, 33.329773%)" fill-opacity="0.502"><g transform="translate(223.052037, 64.106367)"><g><path d="M 26.421875 -19.851562 C 25.140625 -19.65625 23.835938 -18.664062 23.546875 -16.835938 C 22.609375 -10.921875 20.003906 -8.605469 17.941406 -8.292969 C 17.160156 -8.175781 16.636719 -8.519531 16.527344 -9.253906 C 16.472656 -9.621094 16.496094 -10.09375 16.554688 -10.617188 L 19.449219 -26.257812 C 19.550781 -26.835938 19.566406 -27.355469 19.496094 -27.816406 C 19.191406 -29.832031 17.378906 -30.640625 15.683594 -30.382812 C 14.398438 -30.1875 13.15625 -29.390625 12.597656 -28.132812 C 11.542969 -28.585938 9.648438 -29.003906 7.308594 -28.648438 C 4.28125 -28.191406 1.226562 -26.042969 0.523438 -22.320312 L -1.925781 -9.328125 C -2.074219 -8.460938 -2.132812 -7.609375 -2.011719 -6.78125 C -1.433594 -2.972656 2.109375 -0.320312 6.148438 -0.929688 C 8.304688 -1.253906 10.359375 -2.550781 11.828125 -4.320312 C 13.617188 -2.433594 16.929688 -2.558594 18.304688 -2.765625 C 22.113281 -3.339844 26.914062 -6.035156 28.726562 -13.910156 C 29.101562 -15.796875 29.433594 -17.019531 29.308594 -17.847656 C 29.070312 -19.40625 27.753906 -20.050781 26.421875 -19.851562 Z M 11.214844 -18.023438 L 10.042969 -10.855469 C 9.53125 -7.726562 7.890625 -6.777344 6.929688 -6.628906 C 5.917969 -6.476562 5.316406 -7.042969 5.160156 -8.097656 C 5.066406 -8.695312 5.121094 -9.265625 5.199219 -9.699219 L 6.742188 -19.367188 C 7.191406 -22.296875 8.417969 -22.855469 9.152344 -22.96875 C 10.023438 -23.101562 11.121094 -22.375 11.355469 -20.8125 C 11.460938 -20.125 11.40625 -19.226562 11.214844 -18.023438 Z M 11.214844 -18.023438 "/></g></g></g><g fill="rgb(99.21875%, 38.038635%, 33.329773%)" fill-opacity="0.502"><g transform="translate(247.137233, 60.468397)"><g><path d="M 22.707031 -18.351562 C 22.148438 -15.546875 20.332031 -13.582031 17.898438 -13.214844 L 17.671875 -13.179688 L 18.890625 -19.089844 C 19.160156 -20.398438 19.203125 -21.671875 19.039062 -22.773438 C 18.359375 -27.269531 14.511719 -29.738281 10.476562 -29.128906 C 9.695312 -29.007812 9.019531 -28.8125 8.320312 -28.472656 L 10.007812 -37.503906 C 10.101562 -38.128906 10.164062 -38.652344 10.085938 -39.15625 C 9.796875 -41.085938 8.070312 -41.949219 6.464844 -41.707031 C 5.042969 -41.492188 3.796875 -40.414062 3.4375 -38.433594 C 1.589844 -28.300781 -0.0429688 -20.171875 -1.691406 -11.195312 C -1.929688 -9.984375 -1.957031 -8.621094 -1.800781 -7.566406 C -1.042969 -2.5625 3.488281 -0.527344 8.074219 -1.21875 C 11.421875 -1.726562 14.945312 -3.570312 16.363281 -7.539062 C 16.929688 -7.53125 17.53125 -7.574219 18.128906 -7.664062 C 22.992188 -8.398438 27.464844 -12.03125 28.324219 -17.511719 C 28.375 -17.800781 28.386719 -18.035156 28.351562 -18.265625 C 28.125 -19.78125 26.371094 -20.5 24.859375 -20.273438 C 23.847656 -20.121094 22.910156 -19.507812 22.707031 -18.351562 Z M 10.09375 -9.597656 L 10.058594 -9.214844 C 9.734375 -7.617188 8.441406 -6.859375 7.25 -6.679688 C 5.917969 -6.476562 4.9375 -7.082031 4.742188 -8.363281 C 4.679688 -8.777344 4.65625 -9.242188 4.765625 -9.777344 C 5.484375 -13.402344 6.054688 -16.445312 6.722656 -20.113281 C 7.382812 -21.949219 8.679688 -23.320312 10.007812 -23.519531 C 11.203125 -23.699219 12.144531 -23.042969 12.320312 -21.898438 C 12.367188 -21.578125 12.375 -21.203125 12.292969 -20.816406 L 11.746094 -17.917969 C 11.457031 -17.964844 11.792969 -17.921875 11.472656 -17.875 C 9.222656 -17.535156 7.710938 -15.429688 8.066406 -13.089844 C 8.265625 -11.757812 8.964844 -10.550781 10.09375 -9.597656 Z M 10.09375 -9.597656 "/></g></g></g><g fill="rgb(99.21875%, 38.038635%, 33.329773%)" fill-opacity="0.502"><g transform="translate(270.029644, 57.010592)"><g><path d="M 7.636719 -33.015625 C 9.699219 -33.328125 11.140625 -35.28125 10.824219 -37.390625 C 10.511719 -39.457031 8.5625 -40.851562 6.5 -40.539062 C 4.433594 -40.226562 2.988281 -38.320312 3.296875 -36.253906 C 3.617188 -34.144531 5.570312 -32.703125 7.636719 -33.015625 Z M 4.976562 -8.683594 L 7.847656 -23.851562 C 7.941406 -24.472656 8.074219 -25.152344 8.003906 -25.609375 C 7.699219 -27.628906 6.027344 -28.453125 4.464844 -28.21875 C 3.042969 -28.003906 1.683594 -26.765625 1.273438 -24.5 C 0.457031 -19.964844 -0.644531 -14.214844 -1.46875 -9.726562 C -1.605469 -8.765625 -1.785156 -7.472656 -1.667969 -6.691406 C -1.015625 -2.378906 2.9375 -0.445312 7.15625 -1.082031 C 11.652344 -1.761719 16.191406 -5.261719 17.96875 -15.242188 C 18.019531 -15.53125 18.023438 -15.8125 17.980469 -16.089844 C 17.765625 -17.511719 16.257812 -18.175781 14.882812 -17.96875 C 13.644531 -17.78125 12.503906 -16.953125 12.167969 -15.445312 C 10.910156 -9.15625 8.765625 -6.90625 6.929688 -6.628906 C 5.875 -6.472656 5.082031 -7.054688 4.949219 -7.925781 C 4.914062 -8.15625 4.925781 -8.394531 4.976562 -8.683594 Z M 4.976562 -8.683594 "/></g></g></g><g fill="rgb(99.21875%, 38.038635%, 33.329773%)" fill-opacity="0.502"><g transform="translate(282.691574, 55.098059)"><g><path d="M 14.425781 -15.410156 C 13.351562 -10.085938 10.828125 -7.21875 8.167969 -6.816406 C 6.515625 -6.566406 5.355469 -7.425781 5.167969 -8.664062 C 5.117188 -8.984375 5.15625 -9.367188 5.199219 -9.699219 L 7.761719 -23.179688 L 10.742188 -23.628906 C 13.082031 -23.984375 14.070312 -25.824219 13.84375 -27.335938 C 13.664062 -28.53125 12.722656 -29.464844 10.980469 -29.203125 L 8.914062 -28.890625 L 10.636719 -38.300781 C 10.679688 -38.636719 10.6875 -38.917969 10.644531 -39.195312 C 10.386719 -40.890625 8.988281 -42.089844 6.96875 -41.785156 C 5.453125 -41.554688 4.328125 -40.304688 4.019531 -38.617188 L 1.894531 -27.832031 L -0.03125 -27.539062 C -2.507812 -27.167969 -3.328125 -25.445312 -3.105469 -23.980469 C -2.910156 -22.695312 -1.964844 -21.710938 -0.726562 -21.898438 L 0.789062 -22.125 L -1.394531 -10.488281 L -1.402344 -10.535156 C -1.605469 -9.378906 -1.636719 -8.339844 -1.488281 -7.375 C -0.78125 -2.695312 3.808594 -0.574219 8.535156 -1.289062 C 14.40625 -2.175781 18.65625 -7.277344 20.136719 -15.195312 C 20.179688 -15.53125 20.222656 -15.863281 20.179688 -16.140625 C 19.972656 -17.515625 18.511719 -18.1875 17.085938 -17.972656 C 15.941406 -17.800781 14.753906 -16.960938 14.425781 -15.410156 Z M 14.425781 -15.410156 "/></g></g></g><g fill="rgb(96.469116%, 95.289612%, 89.408875%)" fill-opacity="1"><g transform="translate(148.270274, 72.616106)"><g><path d="M 26.851562 -19.824219 C 25.613281 -19.636719 24.425781 -18.800781 24.234375 -17.269531 C 23 -11.453125 20.875 -8.738281 18.8125 -8.425781 C 17.894531 -8.285156 17.292969 -8.851562 17.179688 -9.585938 C 17.140625 -9.863281 17.144531 -10.144531 17.246094 -10.722656 L 22.523438 -39.160156 C 22.621094 -39.738281 22.734375 -40.550781 22.65625 -41.054688 C 22.359375 -43.027344 20.59375 -43.839844 18.988281 -43.597656 C 17.566406 -43.382812 16.394531 -42.128906 15.929688 -39.617188 L 13.542969 -27.152344 C 11.9375 -28.457031 9.789062 -29.023438 7.632812 -28.699219 C 4.648438 -28.246094 1.6875 -26.109375 0.976562 -22.4375 L -1.511719 -9.390625 C -1.703125 -8.472656 -1.699219 -7.53125 -1.574219 -6.707031 C -0.964844 -2.667969 2.707031 -0.410156 6.652344 -1.003906 C 8.808594 -1.332031 11.082031 -2.425781 12.648438 -4.492188 C 14.304688 -3.144531 16.652344 -2.515625 18.949219 -2.863281 C 23.488281 -3.546875 28.226562 -7.59375 29.945312 -17.050781 C 29.988281 -17.386719 30.03125 -17.722656 29.988281 -17.996094 C 29.773438 -19.417969 28.273438 -20.039062 26.851562 -19.824219 Z M 6.59375 -8.222656 C 5.6875 -8.320312 5.355469 -8.972656 5.242188 -9.707031 C 5.152344 -10.304688 5.207031 -10.875 5.285156 -11.308594 L 6.742188 -19.367188 C 7.25 -22.210938 8.417969 -22.855469 9.152344 -22.96875 C 10.023438 -23.101562 11.121094 -22.375 11.355469 -20.8125 C 11.460938 -20.125 11.453125 -19.234375 11.214844 -18.023438 L 10.128906 -12.464844 C 9.265625 -8.859375 7.492188 -8.171875 6.59375 -8.222656 Z M 6.59375 -8.222656 "/></g></g></g><g fill="rgb(96.469116%, 95.289612%, 89.408875%)" fill-opacity="1"><g transform="translate(172.90599, 68.894982)"><g><path d="M 17.957031 -12.519531 C 17.964844 -12.472656 17.855469 -13.207031 17.539062 -14.050781 C 17.824219 -14.328125 18.089844 -14.746094 18.304688 -15.199219 C 18.910156 -16.464844 19.683594 -20.664062 19.40625 -22.5 C 18.699219 -27.179688 14.375 -29.714844 9.421875 -28.96875 C 5.109375 -28.316406 1.386719 -25.3125 0.535156 -21.007812 L -1.386719 -11.050781 C -1.628906 -9.84375 -1.636719 -8.667969 -1.484375 -7.660156 C -0.757812 -2.84375 3.808594 -0.574219 8.488281 -1.28125 C 12.066406 -1.824219 15.148438 -3.460938 16.578125 -7.054688 C 17.4375 -6.949219 18.421875 -6.960938 19.386719 -7.105469 C 24.800781 -7.921875 28.484375 -12.421875 29.316406 -17.472656 C 29.378906 -18 29.402344 -18.472656 29.339844 -18.882812 C 29.082031 -20.582031 27.699219 -21.359375 26.367188 -21.15625 C 25.128906 -20.96875 23.953125 -20.042969 23.707031 -18.269531 C 23.125 -15.269531 21.3125 -12.980469 18.605469 -12.570312 C 18.425781 -12.542969 18.148438 -12.5 17.957031 -12.519531 Z M 12.625 -18.941406 C 12.550781 -18.507812 12.46875 -18.117188 12.476562 -17.746094 C 9.910156 -17.640625 7.976562 -15.234375 8.390625 -12.484375 C 8.671875 -10.929688 9.578125 -10.222656 10.558594 -9.621094 C 10.207031 -7.921875 8.992188 -6.941406 7.570312 -6.726562 C 5.78125 -6.457031 5.15625 -7.488281 4.992188 -8.589844 C 4.859375 -9.460938 4.964844 -10.324219 5.078125 -10.808594 L 6.929688 -20.613281 C 7.25 -22.210938 8.722656 -23.324219 10.144531 -23.539062 C 11.570312 -23.753906 12.632812 -22.929688 12.792969 -21.875 C 12.914062 -21.050781 12.800781 -19.953125 12.625 -18.941406 Z M 12.625 -18.941406 "/></g></g></g><g fill="rgb(96.469116%, 95.289612%, 89.408875%)" fill-opacity="1"><g transform="translate(196.853556, 65.2778)"><g><path d="M 23.605469 -17.078125 C 22.417969 -11.269531 20.234375 -8.640625 18.078125 -8.316406 C 17.25 -8.191406 16.730469 -8.535156 16.613281 -9.3125 C 16.5625 -9.632812 16.601562 -10.015625 16.667969 -10.496094 L 18.707031 -21.21875 C 18.890625 -22.1875 18.949219 -23.039062 18.832031 -23.820312 C 18.277344 -27.488281 14.742188 -29.773438 11.070312 -29.21875 C 9.28125 -28.945312 7.921875 -28.320312 6.863281 -27.265625 C 6.460938 -28.050781 5.246094 -28.335938 4.007812 -28.148438 C 2.722656 -27.957031 1.574219 -27.171875 1.308594 -25.820312 L -3.117188 -3.234375 C -3.191406 -2.800781 -3.183594 -2.429688 -3.125 -2.0625 C -2.871094 -0.363281 -1.410156 0.304688 0.0585938 0.0859375 C 1.664062 -0.15625 3.347656 -1.445312 3.722656 -3.613281 C 4.65625 -8.304688 5.910156 -14.921875 6.804688 -19.5625 C 7.699219 -22.042969 9.136719 -23.386719 10.421875 -23.582031 C 11.246094 -23.707031 11.925781 -23.246094 12.058594 -22.375 C 12.105469 -22.054688 12.078125 -21.625 12.003906 -21.191406 L 10.082031 -11.234375 C 9.875 -10.125 9.796875 -9.082031 9.941406 -8.117188 C 10.578125 -3.898438 14.40625 -2.175781 18.304688 -2.765625 C 22.984375 -3.472656 27.507812 -7.394531 29.320312 -16.816406 C 29.402344 -17.203125 29.441406 -17.585938 29.390625 -17.90625 C 29.171875 -19.375 27.722656 -19.953125 26.34375 -19.746094 C 25.105469 -19.558594 23.835938 -18.664062 23.605469 -17.078125 Z M 23.605469 -17.078125 "/></g></g></g><g fill="rgb(96.469116%, 95.289612%, 89.408875%)" fill-opacity="1"><g transform="translate(220.938752, 61.639829)"><g><path d="M 26.421875 -19.851562 C 25.140625 -19.65625 23.835938 -18.664062 23.546875 -16.835938 C 22.609375 -10.921875 20.003906 -8.605469 17.941406 -8.292969 C 17.160156 -8.175781 16.636719 -8.519531 16.527344 -9.253906 C 16.472656 -9.621094 16.496094 -10.09375 16.554688 -10.617188 L 19.449219 -26.257812 C 19.550781 -26.835938 19.566406 -27.355469 19.496094 -27.816406 C 19.191406 -29.832031 17.378906 -30.640625 15.683594 -30.382812 C 14.398438 -30.1875 13.15625 -29.390625 12.597656 -28.132812 C 11.542969 -28.585938 9.648438 -29.003906 7.308594 -28.648438 C 4.28125 -28.191406 1.226562 -26.042969 0.523438 -22.320312 L -1.925781 -9.328125 C -2.074219 -8.460938 -2.132812 -7.609375 -2.011719 -6.78125 C -1.433594 -2.972656 2.109375 -0.320312 6.148438 -0.929688 C 8.304688 -1.253906 10.359375 -2.550781 11.828125 -4.320312 C 13.617188 -2.433594 16.929688 -2.558594 18.304688 -2.765625 C 22.113281 -3.339844 26.914062 -6.035156 28.726562 -13.910156 C 29.101562 -15.796875 29.433594 -17.019531 29.308594 -17.847656 C 29.070312 -19.40625 27.753906 -20.050781 26.421875 -19.851562 Z M 11.214844 -18.023438 L 10.042969 -10.855469 C 9.53125 -7.726562 7.890625 -6.777344 6.929688 -6.628906 C 5.917969 -6.476562 5.316406 -7.042969 5.160156 -8.097656 C 5.066406 -8.695312 5.121094 -9.265625 5.199219 -9.699219 L 6.742188 -19.367188 C 7.191406 -22.296875 8.417969 -22.855469 9.152344 -22.96875 C 10.023438 -23.101562 11.121094 -22.375 11.355469 -20.8125 C 11.460938 -20.125 11.40625 -19.226562 11.214844 -18.023438 Z M 11.214844 -18.023438 "/></g></g></g><g fill="rgb(96.469116%, 95.289612%, 89.408875%)" fill-opacity="1"><g transform="translate(245.023948, 58.001859)"><g><path d="M 22.707031 -18.351562 C 22.148438 -15.546875 20.332031 -13.582031 17.898438 -13.214844 L 17.671875 -13.179688 L 18.890625 -19.089844 C 19.160156 -20.398438 19.203125 -21.671875 19.039062 -22.773438 C 18.359375 -27.269531 14.511719 -29.738281 10.476562 -29.128906 C 9.695312 -29.007812 9.019531 -28.8125 8.320312 -28.472656 L 10.007812 -37.503906 C 10.101562 -38.128906 10.164062 -38.652344 10.085938 -39.15625 C 9.796875 -41.085938 8.070312 -41.949219 6.464844 -41.707031 C 5.042969 -41.492188 3.796875 -40.414062 3.4375 -38.433594 C 1.589844 -28.300781 -0.0429688 -20.171875 -1.691406 -11.195312 C -1.929688 -9.984375 -1.957031 -8.621094 -1.800781 -7.566406 C -1.042969 -2.5625 3.488281 -0.527344 8.074219 -1.21875 C 11.421875 -1.726562 14.945312 -3.570312 16.363281 -7.539062 C 16.929688 -7.53125 17.53125 -7.574219 18.128906 -7.664062 C 22.992188 -8.398438 27.464844 -12.03125 28.324219 -17.511719 C 28.375 -17.800781 28.386719 -18.035156 28.351562 -18.265625 C 28.125 -19.78125 26.371094 -20.5 24.859375 -20.273438 C 23.847656 -20.121094 22.910156 -19.507812 22.707031 -18.351562 Z M 10.09375 -9.597656 L 10.058594 -9.214844 C 9.734375 -7.617188 8.441406 -6.859375 7.25 -6.679688 C 5.917969 -6.476562 4.9375 -7.082031 4.742188 -8.363281 C 4.679688 -8.777344 4.65625 -9.242188 4.765625 -9.777344 C 5.484375 -13.402344 6.054688 -16.445312 6.722656 -20.113281 C 7.382812 -21.949219 8.679688 -23.320312 10.007812 -23.519531 C 11.203125 -23.699219 12.144531 -23.042969 12.320312 -21.898438 C 12.367188 -21.578125 12.375 -21.203125 12.292969 -20.816406 L 11.746094 -17.917969 C 11.457031 -17.964844 11.792969 -17.921875 11.472656 -17.875 C 9.222656 -17.535156 7.710938 -15.429688 8.066406 -13.089844 C 8.265625 -11.757812 8.964844 -10.550781 10.09375 -9.597656 Z M 10.09375 -9.597656 "/></g></g></g><g fill="rgb(96.469116%, 95.289612%, 89.408875%)" fill-opacity="1"><g transform="translate(267.916359, 54.544054)"><g><path d="M 7.636719 -33.015625 C 9.699219 -33.328125 11.140625 -35.28125 10.824219 -37.390625 C 10.511719 -39.457031 8.5625 -40.851562 6.5 -40.539062 C 4.433594 -40.226562 2.988281 -38.320312 3.296875 -36.253906 C 3.617188 -34.144531 5.570312 -32.703125 7.636719 -33.015625 Z M 4.976562 -8.683594 L 7.847656 -23.851562 C 7.941406 -24.472656 8.074219 -25.152344 8.003906 -25.609375 C 7.699219 -27.628906 6.027344 -28.453125 4.464844 -28.21875 C 3.042969 -28.003906 1.683594 -26.765625 1.273438 -24.5 C 0.457031 -19.964844 -0.644531 -14.214844 -1.46875 -9.726562 C -1.605469 -8.765625 -1.785156 -7.472656 -1.667969 -6.691406 C -1.015625 -2.378906 2.9375 -0.445312 7.15625 -1.082031 C 11.652344 -1.761719 16.191406 -5.261719 17.96875 -15.242188 C 18.019531 -15.53125 18.023438 -15.8125 17.980469 -16.089844 C 17.765625 -17.511719 16.257812 -18.175781 14.882812 -17.96875 C 13.644531 -17.78125 12.503906 -16.953125 12.167969 -15.445312 C 10.910156 -9.15625 8.765625 -6.90625 6.929688 -6.628906 C 5.875 -6.472656 5.082031 -7.054688 4.949219 -7.925781 C 4.914062 -8.15625 4.925781 -8.394531 4.976562 -8.683594 Z M 4.976562 -8.683594 "/></g></g></g><g fill="rgb(96.469116%, 95.289612%, 89.408875%)" fill-opacity="1"><g transform="translate(280.57829, 52.631521)"><g><path d="M 14.425781 -15.410156 C 13.351562 -10.085938 10.828125 -7.21875 8.167969 -6.816406 C 6.515625 -6.566406 5.355469 -7.425781 5.167969 -8.664062 C 5.117188 -8.984375 5.15625 -9.367188 5.199219 -9.699219 L 7.761719 -23.179688 L 10.742188 -23.628906 C 13.082031 -23.984375 14.070312 -25.824219 13.84375 -27.335938 C 13.664062 -28.53125 12.722656 -29.464844 10.980469 -29.203125 L 8.914062 -28.890625 L 10.636719 -38.300781 C 10.679688 -38.636719 10.6875 -38.917969 10.644531 -39.195312 C 10.386719 -40.890625 8.988281 -42.089844 6.96875 -41.785156 C 5.453125 -41.554688 4.328125 -40.304688 4.019531 -38.617188 L 1.894531 -27.832031 L -0.03125 -27.539062 C -2.507812 -27.167969 -3.328125 -25.445312 -3.105469 -23.980469 C -2.910156 -22.695312 -1.964844 -21.710938 -0.726562 -21.898438 L 0.789062 -22.125 L -1.394531 -10.488281 L -1.402344 -10.535156 C -1.605469 -9.378906 -1.636719 -8.339844 -1.488281 -7.375 C -0.78125 -2.695312 3.808594 -0.574219 8.535156 -1.289062 C 14.40625 -2.175781 18.65625 -7.277344 20.136719 -15.195312 C 20.179688 -15.53125 20.222656 -15.863281 20.179688 -16.140625 C 19.972656 -17.515625 18.511719 -18.1875 17.085938 -17.972656 C 15.941406 -17.800781 14.753906 -16.960938 14.425781 -15.410156 Z M 14.425781 -15.410156 "/></g></g></g></svg>