<svg xmlns="http://www.w3.org/2000/svg" xmlns:xlink="http://www.w3.org/1999/xlink" width="400" zoomAndPan="magnify" viewBox="0 0 300 299.999988" height="400" preserveAspectRatio="xMidYMid meet" version="1.0"><defs><clipPath id="id1"><path d="M 8.429688 10.003906 L 294.179688 10.003906 L 294.179688 288.253906 L 8.429688 288.253906 Z M 8.429688 10.003906 " clip-rule="nonzero"/></clipPath></defs><rect x="-30" width="360" fill="#ffffff" y="-29.999999" height="359.999986" fill-opacity="1"/><rect x="-30" width="360" fill="#ffffff" y="-29.999999" height="359.999986" fill-opacity="1"/><rect x="-30" width="360" fill="#ffffff" y="-29.999999" height="359.999986" fill-opacity="1"/><rect x="-30" width="360" fill="#ffffff" y="-29.999999" height="359.999986" fill-opacity="1"/><g clip-path="url(#id1)"><path fill="#646464" d="M 220.625 288.175781 C 218.054688 288.175781 215.539062 287.261719 213.539062 285.488281 L 147.246094 226.054688 L 47.0625 226.054688 C 25.746094 226.054688 8.429688 208.738281 8.429688 187.417969 L 8.429688 48.714844 C 8.429688 27.398438 25.746094 10.082031 47.0625 10.082031 L 255.546875 10.082031 C 276.863281 10.082031 294.179688 27.398438 294.179688 48.714844 L 294.179688 187.417969 C 294.179688 208.738281 276.863281 226.054688 255.546875 226.054688 L 228.398438 226.054688 L 231.199219 276.460938 C 231.257812 276.800781 231.257812 277.203125 231.257812 277.546875 C 231.257812 283.316406 226.628906 288.003906 220.855469 288.117188 C 220.796875 288.175781 220.742188 288.175781 220.625 288.175781 Z M 47.0625 31.226562 C 37.460938 31.226562 29.574219 39.113281 29.574219 48.714844 L 29.574219 187.417969 C 29.574219 197.078125 37.402344 204.90625 47.0625 204.90625 L 151.304688 204.90625 C 153.933594 204.90625 156.449219 205.878906 158.390625 207.59375 L 208.683594 252.628906 L 206.625 216.109375 C 206.453125 213.195312 207.484375 210.335938 209.484375 208.222656 C 211.484375 206.109375 214.285156 204.90625 217.199219 204.90625 L 255.546875 204.90625 C 265.203125 204.90625 273.035156 197.078125 273.035156 187.417969 L 273.035156 48.714844 C 273.035156 39.058594 265.203125 31.226562 255.546875 31.226562 Z M 47.0625 31.226562 " fill-opacity="1" fill-rule="nonzero"/></g><path fill="#646464" d="M 82.546875 92.171875 C 70.117188 92.171875 60.046875 102.246094 60.046875 114.671875 C 60.046875 127.097656 70.117188 137.171875 82.546875 137.171875 C 94.972656 137.171875 105.046875 127.097656 105.046875 114.671875 C 105.046875 102.246094 94.972656 92.171875 82.546875 92.171875 " fill-opacity="1" fill-rule="nonzero"/><path fill="#646464" d="M 151.207031 92.171875 C 138.78125 92.171875 128.707031 102.246094 128.707031 114.671875 C 128.707031 127.097656 138.78125 137.171875 151.207031 137.171875 C 163.636719 137.171875 173.707031 127.097656 173.707031 114.671875 C 173.707031 102.246094 163.636719 92.171875 151.207031 92.171875 " fill-opacity="1" fill-rule="nonzero"/><path fill="#646464" d="M 218.945312 92.171875 C 206.519531 92.171875 196.445312 102.246094 196.445312 114.671875 C 196.445312 127.097656 206.519531 137.171875 218.945312 137.171875 C 231.371094 137.171875 241.445312 127.097656 241.445312 114.671875 C 241.445312 102.246094 231.371094 92.171875 218.945312 92.171875 " fill-opacity="1" fill-rule="nonzero"/></svg>