<svg xmlns="http://www.w3.org/2000/svg" xmlns:xlink="http://www.w3.org/1999/xlink" width="300" zoomAndPan="magnify" viewBox="0 0 224.87999 52.499999" height="70" preserveAspectRatio="xMidYMid meet" version="1.0"><defs><g/><clipPath id="id1"><path d="M 1 0 L 223.761719 0 L 223.761719 47.546875 L 1 47.546875 Z M 1 0 " clip-rule="nonzero"/></clipPath></defs><g clip-path="url(#id1)"><path fill="rgb(100%, 78.819275%, 79.998779%)" d="M 183.960938 8.464844 C 187.261719 8.300781 190.542969 8.046875 193.839844 7.847656 C 200.441406 7.484375 206.976562 6.882812 213.542969 6.378906 C 213.222656 8.0625 212.921875 9.808594 213.875 11.257812 C 213.875 11.257812 214.890625 11.125 216.148438 10.882812 C 217.40625 10.65625 218.917969 10.382812 219.929688 10.199219 C 228.460938 12.683594 227.285156 18.523438 223.539062 23.226562 C 222.566406 24.21875 221.46875 25.339844 220.21875 26.484375 C 219.164062 26.507812 218.109375 26.53125 217.070312 26.554688 C 212.324219 26.683594 207.648438 26.910156 202.933594 27.308594 C 198.246094 27.59375 193.539062 27.972656 188.769531 28.394531 C 179.25 29.136719 176.429688 29.972656 166.136719 30.101562 C 151.699219 29.875 180.476562 28.980469 166.136719 30.101562 C 183.164062 29.503906 155.484375 31.320312 172.804688 30.378906 C 177.140625 30.160156 174.523438 29.945312 178.832031 29.726562 C 183.148438 29.570312 187.449219 29.414062 191.722656 29.261719 C 196.011719 29.105469 200.257812 29.089844 204.515625 29.019531 C 208.78125 28.921875 213 28.953125 217.238281 28.992188 C 214.046875 31.386719 210.179688 33.417969 205.488281 34.09375 C 194.304688 34.824219 183.273438 35.546875 172.339844 36.261719 C 172.289062 35.460938 163.792969 36.917969 156.277344 37.398438 C 148.765625 37.828125 141.367188 36.355469 133.921875 36.527344 C 119.015625 36.921875 89.347656 41.527344 89.140625 42.058594 C 89.066406 42.066406 88.996094 42.070312 88.925781 42.078125 C 88.996094 42.070312 89.066406 42.066406 89.140625 42.058594 C 88.957031 42.523438 89.097656 42.863281 91.011719 42.730469 C 89.097656 42.863281 88.957031 42.523438 89.140625 42.058594 C 119.359375 39.152344 140.710938 37.773438 171.09375 36.351562 C 147.53125 37.925781 131.445312 39.777344 108.265625 41.699219 C 85.09375 43.605469 61.789062 45.539062 37.75 47.007812 C 35.703125 47.132812 31.601562 47.382812 29.554688 47.507812 C 21.269531 45.609375 13.035156 45.292969 4.859375 45.761719 C 6.761719 41.664062 -1.707031 34.179688 14.726562 34.824219 C 14.699219 34.03125 14.644531 32.4375 14.613281 31.644531 C 6.339844 30.128906 0.644531 26.660156 -1.171875 23.089844 C -2.003906 21.3125 -1.902344 19.464844 -0.402344 17.820312 C 1.15625 16.167969 3.753906 14.726562 7.828125 13.695312 C 26.105469 9.457031 50.742188 11.15625 73.136719 8.058594 C 89.441406 6.171875 105.726562 4.210938 122.101562 4.539062 C 144.648438 5.1875 162.101562 2.320312 184.578125 3.035156 C 188.65625 2.96875 194.175781 1.890625 199.210938 1.09375 C 204.21875 0.242188 208.691406 -0.441406 210.8125 0.472656 C 213.789062 1.199219 214.078125 2.863281 213.816406 4.804688 C 207.179688 5.601562 200.582031 6.511719 193.929688 7.144531 C 190.605469 7.480469 187.304688 7.859375 183.984375 8.144531 C 180.667969 8.417969 177.359375 8.691406 174.0625 8.960938 " fill-opacity="1" fill-rule="nonzero"/></g><g fill="rgb(13.328552%, 13.328552%, 13.328552%)" fill-opacity="1"><g transform="translate(21.71342, 33.042162)"><g><path d="M 14.15625 -21.984375 L 14.15625 -18.640625 L 10.046875 -18.640625 L 10.046875 -18.1875 C 10.046875 -17.570312 10.160156 -17 10.390625 -16.46875 C 10.628906 -15.945312 10.953125 -15.457031 11.359375 -15 C 11.765625 -14.539062 12.25 -14.125 12.8125 -13.75 C 13.382812 -13.375 13.992188 -13.046875 14.640625 -12.765625 L 12.453125 -9.8125 C 12.023438 -10.007812 11.585938 -10.242188 11.140625 -10.515625 C 10.691406 -10.796875 10.265625 -11.113281 9.859375 -11.46875 C 9.453125 -11.820312 9.082031 -12.195312 8.75 -12.59375 C 8.414062 -12.988281 8.148438 -13.410156 7.953125 -13.859375 C 7.742188 -13.410156 7.472656 -12.988281 7.140625 -12.59375 C 6.804688 -12.195312 6.4375 -11.820312 6.03125 -11.46875 C 5.625 -11.113281 5.195312 -10.796875 4.75 -10.515625 C 4.300781 -10.242188 3.863281 -10.007812 3.4375 -9.8125 L 1.25 -12.765625 C 1.894531 -13.046875 2.492188 -13.375 3.046875 -13.75 C 3.609375 -14.125 4.097656 -14.539062 4.515625 -15 C 4.929688 -15.457031 5.253906 -15.945312 5.484375 -16.46875 C 5.722656 -17 5.84375 -17.570312 5.84375 -18.1875 L 5.84375 -18.640625 L 1.734375 -18.640625 L 1.734375 -21.984375 Z M 22.46875 -22.96875 L 22.46875 -8.65625 L 18.265625 -8.65625 L 18.265625 -22.96875 Z M 15.28125 3.8125 C 12.363281 3.8125 10.90625 2.328125 10.90625 -0.640625 L 10.90625 -5.71875 L 15.109375 -5.71875 L 15.109375 -1.375 C 15.109375 -0.113281 15.65625 0.492188 16.75 0.453125 L 21.375 0.453125 L 21.375 3.8125 Z M 15.28125 3.8125 "/></g></g></g><g fill="rgb(13.328552%, 13.328552%, 13.328552%)" fill-opacity="1"><g transform="translate(46.071194, 33.042162)"><g><path d="M 1.609375 -14.21875 C 1.609375 -14.894531 1.703125 -15.488281 1.890625 -16 C 2.085938 -16.519531 2.351562 -16.972656 2.6875 -17.359375 L 0.296875 -17.359375 L 0.296875 -20.5625 L 4.96875 -20.5625 L 4.96875 -22.9375 L 9.078125 -22.9375 L 9.078125 -20.5625 L 13.515625 -20.5625 L 13.515625 -17.359375 L 11.203125 -17.359375 C 11.523438 -16.972656 11.78125 -16.519531 11.96875 -16 C 12.164062 -15.488281 12.265625 -14.894531 12.265625 -14.21875 C 12.265625 -13.320312 12.09375 -12.5625 11.75 -11.9375 C 11.40625 -11.3125 10.972656 -10.800781 10.453125 -10.40625 C 9.941406 -10.007812 9.375 -9.71875 8.75 -9.53125 C 8.132812 -9.34375 7.539062 -9.25 6.96875 -9.25 C 6.40625 -9.25 5.804688 -9.34375 5.171875 -9.53125 C 4.546875 -9.71875 3.96875 -10.007812 3.4375 -10.40625 C 2.914062 -10.800781 2.476562 -11.3125 2.125 -11.9375 C 1.78125 -12.5625 1.609375 -13.320312 1.609375 -14.21875 Z M 24.515625 -23.265625 L 24.515625 -8.65625 L 20.4375 -8.65625 L 20.4375 -14.53125 L 18.546875 -14.53125 L 18.546875 -8.65625 L 14.46875 -8.65625 L 14.46875 -23.265625 L 18.546875 -23.265625 L 18.546875 -17.875 L 20.4375 -17.875 L 20.4375 -23.265625 Z M 22.4375 -1.09375 C 22.4375 -0.363281 22.300781 0.328125 22.03125 0.984375 C 21.757812 1.648438 21.378906 2.226562 20.890625 2.71875 C 20.398438 3.21875 19.816406 3.613281 19.140625 3.90625 C 18.460938 4.207031 17.71875 4.359375 16.90625 4.359375 C 16.09375 4.359375 15.34375 4.207031 14.65625 3.90625 C 13.976562 3.613281 13.394531 3.21875 12.90625 2.71875 C 12.425781 2.226562 12.046875 1.648438 11.765625 0.984375 C 11.492188 0.328125 11.359375 -0.363281 11.359375 -1.09375 C 11.359375 -1.820312 11.492188 -2.519531 11.765625 -3.1875 C 12.046875 -3.863281 12.425781 -4.453125 12.90625 -4.953125 C 13.394531 -5.460938 13.976562 -5.867188 14.65625 -6.171875 C 15.34375 -6.484375 16.09375 -6.640625 16.90625 -6.640625 C 17.71875 -6.640625 18.460938 -6.484375 19.140625 -6.171875 C 19.816406 -5.867188 20.398438 -5.460938 20.890625 -4.953125 C 21.378906 -4.453125 21.757812 -3.863281 22.03125 -3.1875 C 22.300781 -2.519531 22.4375 -1.820312 22.4375 -1.09375 Z M 18.671875 -1.09375 C 18.671875 -1.5625 18.507812 -1.972656 18.1875 -2.328125 C 17.875 -2.679688 17.445312 -2.859375 16.90625 -2.859375 C 16.351562 -2.859375 15.921875 -2.679688 15.609375 -2.328125 C 15.296875 -1.972656 15.140625 -1.5625 15.140625 -1.09375 C 15.140625 -0.625 15.296875 -0.21875 15.609375 0.125 C 15.921875 0.46875 16.351562 0.640625 16.90625 0.640625 C 17.445312 0.640625 17.875 0.46875 18.1875 0.125 C 18.507812 -0.21875 18.671875 -0.625 18.671875 -1.09375 Z M 5.421875 -14.34375 C 5.421875 -13.875 5.5625 -13.476562 5.84375 -13.15625 C 6.125 -12.832031 6.5 -12.671875 6.96875 -12.671875 C 7.394531 -12.671875 7.75 -12.832031 8.03125 -13.15625 C 8.320312 -13.476562 8.46875 -13.875 8.46875 -14.34375 C 8.46875 -14.832031 8.320312 -15.242188 8.03125 -15.578125 C 7.75 -15.910156 7.394531 -16.078125 6.96875 -16.078125 C 6.5 -16.078125 6.125 -15.910156 5.84375 -15.578125 C 5.5625 -15.242188 5.421875 -14.832031 5.421875 -14.34375 Z M 5.421875 -14.34375 "/></g></g></g><g fill="rgb(13.328552%, 13.328552%, 13.328552%)" fill-opacity="1"><g transform="translate(72.560266, 33.042162)"><g><path d="M 16.96875 -0.1875 C 16.96875 0.539062 16.828125 1.234375 16.546875 1.890625 C 16.273438 2.554688 15.894531 3.140625 15.40625 3.640625 C 14.914062 4.140625 14.332031 4.535156 13.65625 4.828125 C 12.976562 5.117188 12.234375 5.265625 11.421875 5.265625 C 10.609375 5.265625 9.859375 5.117188 9.171875 4.828125 C 8.492188 4.535156 7.910156 4.140625 7.421875 3.640625 C 6.941406 3.140625 6.5625 2.554688 6.28125 1.890625 C 6.007812 1.234375 5.875 0.539062 5.875 -0.1875 C 5.875 -1.320312 6.1875 -2.363281 6.8125 -3.3125 C 7.445312 -4.269531 8.300781 -4.953125 9.375 -5.359375 L 9.375 -7.1875 L 1.1875 -7.1875 L 1.1875 -10.453125 L 21.65625 -10.453125 L 21.65625 -7.1875 L 13.453125 -7.1875 L 13.453125 -5.359375 C 13.984375 -5.160156 14.46875 -4.878906 14.90625 -4.515625 C 15.34375 -4.160156 15.710938 -3.757812 16.015625 -3.3125 C 16.316406 -2.875 16.550781 -2.382812 16.71875 -1.84375 C 16.882812 -1.300781 16.96875 -0.75 16.96875 -0.1875 Z M 17.78125 -22.78125 L 17.78125 -19.421875 L 13.515625 -19.421875 C 13.554688 -18.859375 13.71875 -18.320312 14 -17.8125 C 14.289062 -17.300781 14.65625 -16.832031 15.09375 -16.40625 C 15.53125 -15.988281 16.035156 -15.597656 16.609375 -15.234375 C 17.191406 -14.878906 17.796875 -14.570312 18.421875 -14.3125 L 16.234375 -11.359375 C 15.804688 -11.554688 15.347656 -11.789062 14.859375 -12.0625 C 14.367188 -12.34375 13.90625 -12.660156 13.46875 -13.015625 C 13.039062 -13.367188 12.640625 -13.742188 12.265625 -14.140625 C 11.898438 -14.535156 11.617188 -14.957031 11.421875 -15.40625 C 11.210938 -14.957031 10.925781 -14.535156 10.5625 -14.140625 C 10.195312 -13.742188 9.789062 -13.367188 9.34375 -13.015625 C 8.894531 -12.660156 8.429688 -12.34375 7.953125 -12.0625 C 7.484375 -11.789062 7.035156 -11.554688 6.609375 -11.359375 L 4.421875 -14.3125 C 5.046875 -14.570312 5.640625 -14.878906 6.203125 -15.234375 C 6.773438 -15.597656 7.28125 -15.988281 7.71875 -16.40625 C 8.15625 -16.832031 8.515625 -17.300781 8.796875 -17.8125 C 9.085938 -18.320312 9.25 -18.859375 9.28125 -19.421875 L 5.0625 -19.421875 L 5.0625 -22.78125 Z M 13.1875 -0.1875 C 13.1875 -0.65625 13.03125 -1.066406 12.71875 -1.421875 C 12.40625 -1.773438 11.972656 -1.953125 11.421875 -1.953125 C 10.867188 -1.953125 10.4375 -1.773438 10.125 -1.421875 C 9.8125 -1.066406 9.65625 -0.65625 9.65625 -0.1875 C 9.65625 0.28125 9.8125 0.6875 10.125 1.03125 C 10.4375 1.375 10.867188 1.546875 11.421875 1.546875 C 11.972656 1.546875 12.40625 1.375 12.71875 1.03125 C 13.03125 0.6875 13.1875 0.28125 13.1875 -0.1875 Z M 13.1875 -0.1875 "/></g></g></g><g fill="rgb(13.328552%, 13.328552%, 13.328552%)" fill-opacity="1"><g transform="translate(95.395677, 33.042162)"><g><path d="M 22.46875 -22.96875 L 22.46875 -8.65625 L 18.265625 -8.65625 L 18.265625 -22.96875 Z M 15.28125 3.8125 C 12.363281 3.8125 10.90625 2.328125 10.90625 -0.640625 L 10.90625 -5.71875 L 15.109375 -5.71875 L 15.109375 -1.375 C 15.109375 -0.113281 15.65625 0.492188 16.75 0.453125 L 21.375 0.453125 L 21.375 3.8125 Z M 9.40625 -16.046875 C 9.40625 -16.515625 9.25 -16.925781 8.9375 -17.28125 C 8.625 -17.632812 8.191406 -17.8125 7.640625 -17.8125 C 7.097656 -17.8125 6.664062 -17.632812 6.34375 -17.28125 C 6.03125 -16.925781 5.875 -16.515625 5.875 -16.046875 C 5.875 -15.578125 6.03125 -15.171875 6.34375 -14.828125 C 6.664062 -14.484375 7.097656 -14.3125 7.640625 -14.3125 C 8.191406 -14.3125 8.625 -14.484375 8.9375 -14.828125 C 9.25 -15.171875 9.40625 -15.578125 9.40625 -16.046875 Z M 13.1875 -16.046875 C 13.1875 -15.316406 13.046875 -14.617188 12.765625 -13.953125 C 12.492188 -13.296875 12.113281 -12.71875 11.625 -12.21875 C 11.144531 -11.726562 10.5625 -11.332031 9.875 -11.03125 C 9.195312 -10.738281 8.453125 -10.59375 7.640625 -10.59375 C 6.828125 -10.59375 6.082031 -10.738281 5.40625 -11.03125 C 4.726562 -11.332031 4.144531 -11.726562 3.65625 -12.21875 C 3.164062 -12.71875 2.78125 -13.296875 2.5 -13.953125 C 2.226562 -14.617188 2.09375 -15.316406 2.09375 -16.046875 C 2.09375 -16.773438 2.226562 -17.472656 2.5 -18.140625 C 2.78125 -18.816406 3.164062 -19.40625 3.65625 -19.90625 C 4.144531 -20.414062 4.726562 -20.820312 5.40625 -21.125 C 6.082031 -21.4375 6.828125 -21.59375 7.640625 -21.59375 C 8.453125 -21.59375 9.195312 -21.4375 9.875 -21.125 C 10.5625 -20.820312 11.144531 -20.414062 11.625 -19.90625 C 12.113281 -19.40625 12.492188 -18.816406 12.765625 -18.140625 C 13.046875 -17.472656 13.1875 -16.773438 13.1875 -16.046875 Z M 13.1875 -16.046875 "/></g></g></g><g fill="rgb(13.328552%, 13.328552%, 13.328552%)" fill-opacity="1"><g transform="translate(119.753451, 33.042162)"><g/></g></g><g fill="rgb(13.328552%, 13.328552%, 13.328552%)" fill-opacity="1"><g transform="translate(127.974198, 33.042162)"><g><path d="M 24.515625 -23.265625 L 24.515625 -8.65625 L 20.4375 -8.65625 L 20.4375 -14.53125 L 18.546875 -14.53125 L 18.546875 -8.65625 L 14.46875 -8.65625 L 14.46875 -23.265625 L 18.546875 -23.265625 L 18.546875 -17.875 L 20.4375 -17.875 L 20.4375 -23.265625 Z M 16.5 0.890625 L 16.5 1.09375 C 16.5 1.476562 16.582031 1.742188 16.75 1.890625 C 16.914062 2.046875 17.171875 2.125 17.515625 2.125 L 23.078125 2.125 L 23.078125 5.328125 L 16.53125 5.328125 C 13.8125 5.328125 12.453125 3.945312 12.453125 1.1875 L 12.453125 -2.21875 L 18.9375 -2.21875 L 18.9375 -3.53125 L 12.453125 -3.53125 L 12.453125 -6.734375 L 23.078125 -6.734375 L 23.078125 0.890625 Z M 4.9375 -20.765625 L 4.9375 -23.046875 L 9.140625 -23.046875 L 9.140625 -20.765625 L 13.25 -20.765625 L 13.25 -17.421875 L 9.140625 -17.421875 C 9.160156 -16.828125 9.285156 -16.269531 9.515625 -15.75 C 9.742188 -15.238281 10.066406 -14.757812 10.484375 -14.3125 C 10.898438 -13.863281 11.382812 -13.457031 11.9375 -13.09375 C 12.488281 -12.726562 13.085938 -12.414062 13.734375 -12.15625 L 11.546875 -9.203125 C 11.117188 -9.398438 10.679688 -9.632812 10.234375 -9.90625 C 9.785156 -10.1875 9.359375 -10.503906 8.953125 -10.859375 C 8.546875 -11.210938 8.175781 -11.585938 7.84375 -11.984375 C 7.507812 -12.378906 7.238281 -12.800781 7.03125 -13.25 C 6.832031 -12.800781 6.5625 -12.378906 6.21875 -11.984375 C 5.882812 -11.585938 5.515625 -11.210938 5.109375 -10.859375 C 4.703125 -10.503906 4.273438 -10.1875 3.828125 -9.90625 C 3.390625 -9.632812 2.957031 -9.398438 2.53125 -9.203125 L 0.328125 -12.15625 C 0.960938 -12.414062 1.554688 -12.726562 2.109375 -13.09375 C 2.671875 -13.457031 3.15625 -13.863281 3.5625 -14.3125 C 3.96875 -14.757812 4.289062 -15.238281 4.53125 -15.75 C 4.78125 -16.269531 4.914062 -16.828125 4.9375 -17.421875 L 0.828125 -17.421875 L 0.828125 -20.765625 Z M 4.9375 -20.765625 "/></g></g></g><g fill="rgb(13.328552%, 13.328552%, 13.328552%)" fill-opacity="1"><g transform="translate(154.46327, 33.042162)"><g><path d="M 22.46875 -22.96875 L 22.46875 -8.65625 L 18.265625 -8.65625 L 18.265625 -22.96875 Z M 15.28125 3.8125 C 12.363281 3.8125 10.90625 2.328125 10.90625 -0.640625 L 10.90625 -5.71875 L 15.109375 -5.71875 L 15.109375 -1.375 C 15.109375 -0.113281 15.65625 0.492188 16.75 0.453125 L 21.375 0.453125 L 21.375 3.8125 Z M 5.84375 -14.28125 L 5.84375 -13.765625 C 5.84375 -13.210938 6.117188 -12.9375 6.671875 -12.9375 L 13.515625 -12.9375 L 13.515625 -9.65625 L 5.84375 -9.65625 C 3.125 -9.65625 1.765625 -11.035156 1.765625 -13.796875 L 1.765625 -17.515625 L 9.34375 -17.515625 L 9.34375 -18.84375 L 1.765625 -18.84375 L 1.765625 -22.140625 L 13.515625 -22.140625 L 13.515625 -14.28125 Z M 5.84375 -14.28125 "/></g></g></g><g fill="rgb(13.328552%, 13.328552%, 13.328552%)" fill-opacity="1"><g transform="translate(178.821044, 33.042162)"><g><path d="M 14.15625 -21.984375 L 14.15625 -18.640625 L 10.046875 -18.640625 L 10.046875 -18.1875 C 10.046875 -17.570312 10.160156 -17 10.390625 -16.46875 C 10.628906 -15.945312 10.953125 -15.457031 11.359375 -15 C 11.765625 -14.539062 12.25 -14.125 12.8125 -13.75 C 13.382812 -13.375 13.992188 -13.046875 14.640625 -12.765625 L 12.453125 -9.8125 C 12.023438 -10.007812 11.585938 -10.242188 11.140625 -10.515625 C 10.691406 -10.796875 10.265625 -11.113281 9.859375 -11.46875 C 9.453125 -11.820312 9.082031 -12.195312 8.75 -12.59375 C 8.414062 -12.988281 8.148438 -13.410156 7.953125 -13.859375 C 7.742188 -13.410156 7.472656 -12.988281 7.140625 -12.59375 C 6.804688 -12.195312 6.4375 -11.820312 6.03125 -11.46875 C 5.625 -11.113281 5.195312 -10.796875 4.75 -10.515625 C 4.300781 -10.242188 3.863281 -10.007812 3.4375 -9.8125 L 1.25 -12.765625 C 1.894531 -13.046875 2.492188 -13.375 3.046875 -13.75 C 3.609375 -14.125 4.097656 -14.539062 4.515625 -15 C 4.929688 -15.457031 5.253906 -15.945312 5.484375 -16.46875 C 5.722656 -17 5.84375 -17.570312 5.84375 -18.1875 L 5.84375 -18.640625 L 1.734375 -18.640625 L 1.734375 -21.984375 Z M 22.46875 -22.96875 L 22.46875 -7.734375 L 18.265625 -7.734375 L 18.265625 -22.96875 Z M 22.46875 -22.96875 "/></g></g></g></svg>